<svg width="24" height="24" viewBox="0 0 24 24" fill="none" xmlns="http://www.w3.org/2000/svg">
<path fill-rule="evenodd" clip-rule="evenodd" d="M9.20712 4.70706L5.00001 8.91417L2.29291 6.20706L3.70712 4.79285L5.00001 6.08574L7.79291 3.29285L9.20712 4.70706Z" fill="black"/>
<path fill-rule="evenodd" clip-rule="evenodd" d="M22 7.74995H11V5.24995H22V7.74995Z" fill="black"/>
<path fill-rule="evenodd" clip-rule="evenodd" d="M9.20712 11.2071L5.00001 15.4142L2.29291 12.7071L3.70712 11.2928L5.00001 12.5857L7.79291 9.79285L9.20712 11.2071Z" fill="black"/>
<path fill-rule="evenodd" clip-rule="evenodd" d="M22 14.25H11V11.75H22V14.25Z" fill="black"/>
<path fill-rule="evenodd" clip-rule="evenodd" d="M9.20712 17.4571L5.00001 21.6642L2.29291 18.9571L3.70712 17.5428L5.00001 18.8357L7.79291 16.0428L9.20712 17.4571Z" fill="black"/>
<path fill-rule="evenodd" clip-rule="evenodd" d="M22 20.25H11V17.75H22V20.25Z" fill="black"/>
</svg>
