<svg width="24" height="24" viewBox="0 0 24 24" fill="none" xmlns="http://www.w3.org/2000/svg">
<path d="M12 2C6.4775 2 2 6.4775 2 12C2 17.5225 6.4775 22 12 22C17.5225 22 22 17.5225 22 12C22 6.4775 17.5225 2 12 2ZM15.7475 9.84248V10.0675H13.545V9.80373C13.545 9.33873 13.415 8.98124 13.1562 8.73374C12.8975 8.48499 12.53 8.36124 12.055 8.36124C11.755 8.36124 11.4937 8.40748 11.2712 8.49998C10.6825 8.74748 10.4587 9.59624 10.7512 10.145C10.8337 10.3 10.9737 10.4287 11.17 10.5325C11.3662 10.6362 11.625 10.73 11.9462 10.8112L13.1725 11.1225C13.6687 11.2363 14.095 11.4087 14.4525 11.6425C14.81 11.875 15.0912 12.1713 15.2987 12.5338C15.4125 12.7613 15.5025 13.01 15.57 13.2787C15.6375 13.5475 15.67 13.8375 15.67 14.1475C15.67 14.4887 15.6362 14.7962 15.57 15.07C15.5025 15.3437 15.4012 15.6163 15.2675 15.885C14.9462 16.3925 14.5087 16.7775 13.9562 17.0412C13.6787 17.1737 13.3712 17.2725 13.035 17.3387V18.9125H10.905V17.3425C10.5725 17.2775 10.265 17.1812 9.98374 17.05C9.43124 16.7912 9.00375 16.4062 8.70375 15.8937C8.40375 15.3825 8.25375 14.77 8.25375 14.055V13.7762H10.5037V14.025C10.5037 14.3462 10.5575 14.62 10.6662 14.8475C10.775 15.075 10.9425 15.2462 11.17 15.36C11.3975 15.4737 11.6612 15.53 11.9612 15.53C12.2925 15.53 12.5662 15.4787 12.7837 15.375C13.0825 15.2325 13.285 14.94 13.3687 14.6225C13.4525 14.305 13.4137 13.9525 13.2412 13.6713C12.995 13.27 12.545 13.135 12.1175 13.0162L10.86 12.7225C10.3425 12.5975 9.9075 12.4225 9.55625 12.195C9.20375 11.9675 8.93624 11.6887 8.74874 11.3562C8.60374 11.1087 8.50499 10.8525 8.45374 10.5888C8.40124 10.325 8.37625 10.0275 8.37625 9.69623C8.37625 9.38748 8.41249 9.09123 8.48499 8.81248C8.5575 8.53373 8.66 8.25874 8.795 7.98999C9.085 7.50374 9.51125 7.12623 10.075 6.85748C10.33 6.73498 10.61 6.64998 10.9025 6.58248V5.0875H13.0325V6.5425C13.3975 6.60625 13.7375 6.70123 14.0387 6.84123C14.5975 7.09998 15.0212 7.47749 15.3112 7.97374C15.6012 8.47124 15.7462 9.06625 15.7462 9.75875V9.84374L15.7475 9.84248Z" fill="black"/>
</svg>
