<svg width="24" height="24" viewBox="0 0 24 24" fill="none" xmlns="http://www.w3.org/2000/svg">
<path fill-rule="evenodd" clip-rule="evenodd" d="M12 19.75C16.2802 19.75 19.75 16.2802 19.75 12C19.75 7.71979 16.2802 4.25 12 4.25C7.71979 4.25 4.25 7.71979 4.25 12C4.25 16.2802 7.71979 19.75 12 19.75ZM12 22C17.5228 22 22 17.5228 22 12C22 6.47715 17.5228 2 12 2C6.47715 2 2 6.47715 2 12C2 17.5228 6.47715 22 12 22Z" fill="black"/>
<path d="M15.5 10.1828V9.97123L15.4988 9.97242V9.8925C15.4988 9.24132 15.3634 8.68182 15.0925 8.214C14.8216 7.74737 14.4258 7.39239 13.9038 7.14908C13.6224 7.01743 13.3048 6.92812 12.9639 6.86818V5.5H10.9742V6.90577C10.701 6.96924 10.4395 7.04917 10.2013 7.16436C9.67465 7.41707 9.27648 7.77205 9.00559 8.22928C8.87948 8.482 8.78373 8.74057 8.71601 9.00269C8.64829 9.26481 8.61443 9.54338 8.61443 9.8337C8.61443 10.1452 8.63778 10.425 8.68682 10.673C8.73469 10.921 8.82693 11.1619 8.96238 11.3946C9.13753 11.7073 9.38741 11.9694 9.71668 12.1834C10.0448 12.3973 10.4511 12.5618 10.9345 12.6794L12.1092 12.9556C12.5085 13.0673 12.9289 13.1942 13.1589 13.5715C13.32 13.836 13.3562 14.1674 13.278 14.466C13.1997 14.7645 13.0106 15.0396 12.7315 15.1736C12.5284 15.2711 12.2726 15.3194 11.9632 15.3194C11.683 15.3194 11.4366 15.2664 11.2241 15.1595C11.0116 15.0525 10.8551 14.8915 10.7535 14.6776C10.652 14.4636 10.6017 14.2062 10.6017 13.9042V13.6702H8.5V13.9323C8.5 14.6047 8.64012 15.1806 8.92035 15.6614C9.20058 16.1433 9.59991 16.5053 10.116 16.7486C10.3787 16.872 10.666 16.9626 10.9766 17.0237V18.5H12.9662V17.0202C13.2803 16.9579 13.5676 16.865 13.8268 16.7404C14.3429 16.4924 14.7515 16.1304 15.0516 15.6532C15.1766 15.4005 15.2711 15.1442 15.3342 14.8868C15.3961 14.6294 15.4276 14.3402 15.4276 14.0193C15.4276 13.7278 15.3972 13.4551 15.3342 13.2024C15.2711 12.9497 15.1871 12.7158 15.0808 12.5019C14.887 12.161 14.6243 11.8824 14.2903 11.6638C13.9564 11.444 13.5582 11.2818 13.0947 11.1749L11.9492 10.8822C11.6491 10.8058 11.4074 10.7176 11.2241 10.6201C11.0408 10.5225 10.91 10.4014 10.8329 10.2557C10.5597 9.73968 10.7687 8.94157 11.3187 8.70884C11.5265 8.62186 11.7706 8.57838 12.0508 8.57838C12.4945 8.57838 12.8378 8.69475 13.0795 8.92865C13.3212 9.16138 13.4426 9.49754 13.4426 9.93479V10.1828H15.5Z" fill="black"/>
</svg>
