<svg width="24" height="24" viewBox="0 0 24 24" fill="none" xmlns="http://www.w3.org/2000/svg">
<path fill-rule="evenodd" clip-rule="evenodd" d="M22.2 21.6H18.375L15.6169 18.3053C14.5053 18.8382 13.2698 19.125 12 19.125C9.57639 19.125 7.27794 18.0802 5.72635 16.273L1.80005 11.7L5.72635 7.12707C5.81616 7.02246 5.90847 6.92041 6.00317 6.82097L1.80005 1.80005H5.62505L22.2 21.6ZM13.0717 15.2649L8.62453 9.95237C8.33768 10.4732 8.17505 11.0682 8.17505 11.7C8.17505 13.7504 9.88756 15.4125 12 15.4125C12.3721 15.4125 12.7317 15.361 13.0717 15.2649Z" fill="black"/>
<path d="M22.2 11.7L19.9406 14.3317L11.5328 4.28801C11.6879 4.2794 11.8437 4.27505 12 4.27505C14.4237 4.27505 16.7222 5.31992 18.2738 7.12707L22.2 11.7Z" fill="black"/>
</svg>
