<svg width="24" height="24" viewBox="0 0 24 24" fill="none" xmlns="http://www.w3.org/2000/svg">
<path fill-rule="evenodd" clip-rule="evenodd" d="M15.75 3C18.6495 3 21 5.35051 21 8.25V13L18 13V8.25C18 7.00736 16.9926 6 15.75 6C14.5074 6 13.5 7.00736 13.5 8.25L13.5 15.75C13.5 18.6495 11.1495 21 8.25 21C5.3505 21 3 18.6495 3 15.75L3 11H6L6 15.75C6 16.9926 7.00736 18 8.25 18C9.49264 18 10.5 16.9926 10.5 15.75L10.5 8.25C10.5 5.35051 12.8505 3 15.75 3Z" fill="black"/>
<path d="M7 4.00005L7 9.00005H2L2 4.00005L7 4.00005Z" fill="black"/>
<path d="M22 15.0001V20.0001H17L17 15.0001L22 15.0001Z" fill="black"/>
</svg>
