<svg width="24" height="24" viewBox="0 0 24 24" fill="none" xmlns="http://www.w3.org/2000/svg">
<path d="M10.4535 3.21534C11.7439 1.92491 13.4941 1.19995 15.319 1.19995C19.1193 1.19995 22.2 4.28066 22.2 8.08092C22.2 9.90586 21.4751 11.6561 20.1846 12.9465L17.4937 15.6375L15.6375 13.7813L18.3285 11.0903C19.1266 10.2922 19.575 9.20967 19.575 8.08092C19.575 5.73041 17.6695 3.82495 15.319 3.82495C14.1903 3.82495 13.1078 4.27335 12.3096 5.07149L9.61867 7.76245L7.76251 5.9063L10.4535 3.21534Z" fill="black"/>
<path d="M11.0904 18.3284L13.7814 15.6375L15.6375 17.4936L12.9466 20.1846C11.6561 21.475 9.90592 22.2 8.08098 22.2C4.28073 22.2 1.20001 19.1192 1.20001 15.319C1.20001 13.494 1.92497 11.7438 3.2154 10.4534L5.90636 7.76245L7.76251 9.61861L5.07155 12.3096C4.27341 13.1077 3.82501 14.1902 3.82501 15.319C3.82501 17.6695 5.73047 19.575 8.08098 19.575C9.20973 19.575 10.2923 19.1266 11.0904 18.3284Z" fill="black"/>
<path d="M8.69059 16.5655L16.5656 8.69053L14.7094 6.83437L6.83443 14.7094L8.69059 16.5655Z" fill="black"/>
</svg>
