<svg width="24" height="24" viewBox="0 0 24 24" fill="none" xmlns="http://www.w3.org/2000/svg">
<path fill-rule="evenodd" clip-rule="evenodd" d="M4.28418 9.41277V9.78062C4.28418 11.5766 4.92381 13.3191 6.09787 14.7216L12.176 21.982L18.2541 14.7216C19.4281 13.3191 20.0677 11.5766 20.0677 9.78062V9.41277C20.0677 5.24769 16.5345 1.87122 12.176 1.87122C7.81745 1.87122 4.28418 5.24769 4.28418 9.41277ZM12.176 11.9266C13.6288 11.9266 14.8066 10.8011 14.8066 9.41277C14.8066 8.02441 13.6288 6.89892 12.176 6.89892C10.7231 6.89892 9.54537 8.02441 9.54537 9.41277C9.54537 10.8011 10.7231 11.9266 12.176 11.9266Z" fill="black"/>
</svg>
