<svg width="24" height="24" viewBox="0 0 24 24" fill="none" xmlns="http://www.w3.org/2000/svg">
<path d="M14.75 12C14.75 13.4083 13.5747 14.55 12.125 14.55C10.6753 14.55 9.5 13.4083 9.5 12C9.5 10.5916 10.6753 9.44995 12.125 9.44995C13.5747 9.44995 14.75 10.5916 14.75 12Z" fill="black"/>
<path d="M7.125 12C7.125 13.4083 5.94975 14.55 4.5 14.55C3.05025 14.55 1.875 13.4083 1.875 12C1.875 10.5916 3.05025 9.44995 4.5 9.44995C5.94975 9.44995 7.125 10.5916 7.125 12Z" fill="black"/>
<path d="M22.2 12C22.2 13.4083 21.0247 14.55 19.575 14.55C18.1252 14.55 16.95 13.4083 16.95 12C16.95 10.5916 18.1252 9.44995 19.575 9.44995C21.0247 9.44995 22.2 10.5916 22.2 12Z" fill="black"/>
</svg>
