<svg width="48" height="48" viewBox="0 0 48 48" fill="none" xmlns="http://www.w3.org/2000/svg">
<path fill-rule="evenodd" clip-rule="evenodd" d="M26.5716 1.71423V7.71423H22.2859V1.71423H26.5716ZM11.1736 8.14281L14.2041 11.1733L11.1736 14.2037L8.14316 11.1733L11.1736 8.14281ZM37.1228 14.1733L40.1533 11.1428L37.1228 8.11235L34.0923 11.1428L37.1228 14.1733ZM5.14307 21.8571H11.1431V26.1428H5.14307L5.14307 21.8571ZM43.7145 21.8571H37.7145V26.1428H43.7145V21.8571ZM26.8193 28.0991V20.5257C26.8193 19.8132 26.5779 19.228 26.0978 18.7701C25.6176 18.3122 24.9819 18.0821 24.2116 18.0821C23.4644 18.0821 22.6657 18.4048 22.1855 18.8627C21.7054 19.3206 21.464 19.9082 21.464 20.6183V32.4169L17.6502 31.3939C17.0494 31.2568 16.4999 31.2151 16.0069 31.2739C15.5139 31.3327 15.098 31.5433 14.7616 31.9105L13.8554 32.9461L20.0759 41.8079L22.4354 43.4442H32.9459L34.8764 41.8079L36.6431 34.8219C36.7381 34.0653 36.656 33.3871 36.3916 32.7896C35.4131 31.1859 29.7067 28.861 26.8193 28.0991ZM34.7145 20.9999C34.7145 23.4279 33.8732 25.6594 32.4663 27.4188C31.421 26.9708 30.344 26.56 29.3555 26.2243V20.5257C29.3555 19.1732 28.8676 17.9069 27.8481 16.9347C26.816 15.9504 25.5136 15.5459 24.2116 15.5459C22.8439 15.5459 21.4093 16.0984 20.4353 17.0273C19.4148 18.0004 18.9278 19.2697 18.9278 20.6183V29.1107L18.2612 28.9319L18.2146 28.9213C18.0635 28.8868 17.9111 28.8559 17.7576 28.8291C15.5457 26.9425 14.1431 24.135 14.1431 20.9999C14.1431 15.3193 18.7481 10.7142 24.4288 10.7142C30.1094 10.7142 34.7145 15.3193 34.7145 20.9999Z" fill="black"/>
</svg>
