<svg width="24" height="24" viewBox="0 0 24 24" fill="none" xmlns="http://www.w3.org/2000/svg">
<path d="M18.2625 3.1687C18.2625 4.25601 17.3811 5.13745 16.2938 5.13745C15.2065 5.13745 14.325 4.25601 14.325 3.1687C14.325 2.08139 15.2065 1.19995 16.2938 1.19995C17.3811 1.19995 18.2625 2.08139 18.2625 3.1687Z" fill="black"/>
<path fill-rule="evenodd" clip-rule="evenodd" d="M9.36497 5.3007C8.50434 5.12858 7.61462 5.39796 6.99401 6.01857L4.8657 8.14688L6.72186 10.003L8.85017 7.87473L10.7934 8.26337L8.5423 11.7266C5.893 11.9936 3.82501 14.2303 3.82501 16.95C3.82501 19.8494 6.17552 22.2 9.07501 22.2C11.9745 22.2 14.325 19.8494 14.325 16.95C14.325 16.4968 14.2676 16.057 14.1596 15.6375H16.9096L15.5971 20.8876H18.3029L19.4563 16.2742C19.8705 14.6174 18.6174 13.0125 16.9096 13.0125H12.9084L16.0565 8.51512L15.2387 6.47544L9.36497 5.3007ZM9.07501 19.575C10.5248 19.575 11.7 18.3997 11.7 16.95C11.7 15.5002 10.5248 14.325 9.07501 14.325C7.62526 14.325 6.45001 15.5002 6.45001 16.95C6.45001 18.3997 7.62526 19.575 9.07501 19.575Z" fill="black"/>
</svg>
