<svg width="24" height="24" viewBox="0 0 24 24" fill="none" xmlns="http://www.w3.org/2000/svg">
<path d="M14.55 3.1687C14.55 4.25601 13.6938 5.13745 12.6375 5.13745C11.5813 5.13745 10.725 4.25601 10.725 3.1687C10.725 2.08139 11.5813 1.19995 12.6375 1.19995C13.6938 1.19995 14.55 2.08139 14.55 3.1687Z" fill="black"/>
<path d="M5.40987 8.35381C5.72264 7.22689 6.72323 6.44995 7.86175 6.44995H11.6635L15.2456 8.29368L17.9015 7.20008L18.8485 9.63733L16.1926 10.7309C15.5164 11.0094 14.7567 10.9769 14.1052 10.6415L13.914 10.5431L13.2321 13.3506L14.344 14.0046C15.3359 14.5881 15.8298 15.7795 15.5527 16.9204L14.2705 22.2H11.642L13.0788 16.2837L10.9162 15.0116L9.17051 22.2H6.54203L9.72953 9.07495H7.86175L7.13318 11.7H4.48114L5.40987 8.35381Z" fill="black"/>
</svg>
