<svg width="24" height="24" viewBox="0 0 24 24" fill="none" xmlns="http://www.w3.org/2000/svg">
<path fill-rule="evenodd" clip-rule="evenodd" d="M12 22C17.5228 22 22 17.5228 22 12C22 6.47715 17.5228 2 12 2C6.47715 2 2 6.47715 2 12C2 17.5228 6.47715 22 12 22ZM12 8.25C10.9645 8.25 10.125 9.08947 10.125 10.125V10.75H7.625V10.125C7.625 7.70875 9.58375 5.75 12 5.75C14.4162 5.75 16.375 7.70875 16.375 10.125C16.375 12.5412 14.4162 14.5 12 14.5H10.75V12H12C13.0355 12 13.875 11.1605 13.875 10.125C13.875 9.08947 13.0355 8.25 12 8.25ZM13.25 15.75V18.25H10.75V15.75H13.25Z" fill="black"/>
</svg>
