<svg width="24" height="24" viewBox="0 0 24 24" fill="none" xmlns="http://www.w3.org/2000/svg">
<path fill-rule="evenodd" clip-rule="evenodd" d="M12 19.75C16.2802 19.75 19.75 16.2802 19.75 12C19.75 7.71979 16.2802 4.25 12 4.25C7.71979 4.25 4.25 7.71979 4.25 12C4.25 16.2802 7.71979 19.75 12 19.75ZM12 22C17.5228 22 22 17.5228 22 12C22 6.47715 17.5228 2 12 2C6.47715 2 2 6.47715 2 12C2 17.5228 6.47715 22 12 22Z" fill="black"/>
<path d="M12 8.47794C11.0532 8.47794 10.2857 9.26803 10.2857 10.2426V10.8309H8V10.2426C8 7.96853 9.79086 6.125 12 6.125C14.2091 6.125 16 7.96853 16 10.2426C16 12.5168 14.2091 14.3603 12 14.3603H10.8571V12.0074H12C12.9468 12.0074 13.7143 11.2173 13.7143 10.2426C13.7143 9.26803 12.9468 8.47794 12 8.47794Z" fill="black"/>
<path d="M13.1429 15.5368V17.8897H10.8571V15.5368H13.1429Z" fill="black"/>
</svg>
