<svg width="24" height="24" viewBox="0 0 24 24" fill="none" xmlns="http://www.w3.org/2000/svg">
<path d="M14.3131 11.4286C14.3564 11.6109 14.3875 11.7951 14.3875 12C14.3875 13.3125 13.325 14.3875 12 14.3875C10.675 14.3875 9.61253 13.325 9.61253 12C9.61253 10.675 10.675 9.61253 12 9.61253C12.2125 9.61253 12.425 9.65 12.625 9.7L14.55 7.77503C13.8 7.32503 12.9375 7.05001 12 7.05001C9.2625 7.05001 7.05005 9.2625 7.05005 12C7.05005 14.7375 9.2625 16.95 12 16.95C14.7375 16.95 16.95 14.7375 16.95 12C16.95 11.0799 16.6851 10.232 16.2498 9.49184L14.3131 11.4286Z" fill="black"/>
<path d="M18.2031 7.5386C19.1111 8.79404 19.6501 10.3296 19.6501 12C19.6501 16.225 16.225 19.65 12 19.65C7.775 19.65 4.35001 16.225 4.35001 12C4.35001 7.775 7.775 4.35001 12 4.35001C13.6875 4.35001 15.2375 4.90004 16.5 5.82504L18.175 4.13237L18.1961 4.15145L18.1975 4.15009C18.19 4.14417 18.1825 4.13827 18.175 4.13237C16.475 2.79652 14.331 2 12 2C6.475 2 2 6.475 2 12C2 17.525 6.475 22 12 22C17.525 22 22 17.525 22 12C22 9.6816 21.212 7.54808 19.8892 5.85251L18.2031 7.5386Z" fill="black"/>
</svg>
