<svg width="24" height="24" viewBox="0 0 24 24" fill="none" xmlns="http://www.w3.org/2000/svg">
<path d="M9.44999 10.4625L10.725 9.22505L7.80155 6.38759L8.54843 5.66268C9.46384 4.7742 10.7054 4.27505 12 4.27505C13.2946 4.27505 14.5361 4.7742 15.4515 5.66268L15.5609 5.76884C16.5464 6.7253 17.1 8.02254 17.1 9.37518L17.1 10.4625L19.65 10.4626V9.37518C19.65 7.36613 18.8277 5.43937 17.364 4.01875L17.2547 3.91259C15.861 2.55995 13.9709 1.80005 12 1.80005C10.0291 1.80005 8.13893 2.55995 6.74531 3.91259L5.99843 4.6375L3.07499 1.80005L1.79999 3.03755V10.4625H9.44999Z" fill="black"/>
<path d="M15.4515 17.7374C14.5361 18.6259 13.2946 19.125 12 19.125C10.7054 19.125 9.46384 18.6259 8.54843 17.7374L8.43905 17.6313C7.45361 16.6748 6.89999 15.3776 6.89999 14.0249L6.89999 12.9375L4.34999 12.9375V14.0249C4.34999 16.034 5.17227 17.9607 6.63593 19.3813L6.74531 19.4875C8.13893 20.8401 10.0291 21.6 12 21.6C13.9709 21.6 15.861 20.8401 17.2547 19.4875L18.0015 18.7626L20.925 21.6L22.2 20.3625L22.2 12.9375L14.55 12.9375L13.275 14.175L16.1984 17.0125L15.4515 17.7374Z" fill="black"/>
</svg>
