<svg width="24" height="24" viewBox="0 0 24 24" fill="none" xmlns="http://www.w3.org/2000/svg">
<path d="M14.55 12H13.275V7.9453L8.37558 6.9654C8.15826 6.92194 7.93717 6.90005 7.71555 6.90005C5.85683 6.90005 4.35005 8.40683 4.35005 10.2655V13.275H1.80005V10.2655C1.80005 6.99851 4.44851 4.35005 7.71555 4.35005C8.1051 4.35005 8.49369 4.38853 8.87567 4.46492L13.275 5.3448V1.80005H14.55L19.65 6.90005L14.55 12Z" fill="black"/>
<path d="M22.2 10.725V13.7345C22.2 17.0016 19.5516 19.65 16.2845 19.65C15.895 19.65 15.5064 19.6116 15.1244 19.5352L10.725 18.6553V22.2H9.45005L4.35005 17.1L9.45005 12H10.725V16.0548L15.6245 17.0347C15.8418 17.0782 16.0629 17.1 16.2845 17.1C18.1433 17.1 19.65 15.5933 19.65 13.7345V10.725H22.2Z" fill="black"/>
</svg>
