<svg width="24" height="24" viewBox="0 0 24 24" fill="none" xmlns="http://www.w3.org/2000/svg">
<path fill-rule="evenodd" clip-rule="evenodd" d="M10.8869 18.7739C12.6585 18.7739 13.9909 18.4925 15.3075 17.5064L18.8011 21L21 18.8011L17.5064 15.3075C18.4925 13.9909 18.7739 12.6585 18.7739 10.8869C18.7739 6.5311 15.2428 3 10.8869 3C6.5311 3 3 6.5311 3 10.8869C3 15.2428 6.5311 18.7739 10.8869 18.7739ZM10.9006 15.6409C13.5186 15.6409 15.6409 13.5186 15.6409 10.9006C15.6409 8.28254 13.5186 6.16022 10.9006 6.16022C8.28255 6.16022 6.16023 8.28254 6.16023 10.9006C6.16023 13.5186 8.28255 15.6409 10.9006 15.6409Z" fill="black"/>
</svg>
