<svg width="24" height="24" viewBox="0 0 24 24" fill="none" xmlns="http://www.w3.org/2000/svg">
<path fill-rule="evenodd" clip-rule="evenodd" d="M12.9375 1.80005H10.4625L9.78122 4.52537C9.14448 4.69523 8.54143 4.94759 7.9842 5.27032L5.57474 3.82464L3.82466 5.57473L5.27033 7.98419C4.9476 8.54141 4.69523 9.14448 4.52537 9.78122L1.80005 10.4625V12.9375L4.52537 13.6189C4.69523 14.2556 4.9476 14.8587 5.27033 15.4159L3.82466 17.8254L5.57475 19.5754L7.9842 18.1298C8.54142 18.4525 9.14448 18.7049 9.78122 18.8747L10.4625 21.6H12.9375L13.6189 18.8747C14.2556 18.7049 14.8587 18.4525 15.4159 18.1298L17.8254 19.5754L19.5755 17.8254L18.1298 15.4159C18.4525 14.8587 18.7049 14.2556 18.8747 13.6189L21.6 12.9375V10.4625L18.8747 9.78122C18.7049 9.14448 18.4525 8.54143 18.1298 7.9842L19.5755 5.57473L17.8254 3.82464L15.4159 5.27032C14.8587 4.9476 14.2556 4.69523 13.6189 4.52537L12.9375 1.80005ZM11.7 14.175C13.067 14.175 14.175 13.067 14.175 11.7C14.175 10.3331 13.067 9.22505 11.7 9.22505C10.3331 9.22505 9.22505 10.3331 9.22505 11.7C9.22505 13.067 10.3331 14.175 11.7 14.175Z" fill="black"/>
</svg>
