<svg width="24" height="24" viewBox="0 0 24 24" fill="none" xmlns="http://www.w3.org/2000/svg">
<path d="M15.825 9.22505C17.9375 9.22505 19.65 7.56291 19.65 5.51255C19.65 3.46219 17.9375 1.80005 15.825 1.80005C13.7126 1.80005 12 3.46219 12 5.51255C12 5.78938 12.0313 6.05914 12.0905 6.31869L8.00752 8.79548C7.35394 8.28979 6.52586 7.98755 5.62505 7.98755C3.51256 7.98755 1.80005 9.64969 1.80005 11.7C1.80005 13.7504 3.51256 15.4125 5.62505 15.4125C6.52586 15.4125 7.35394 15.1103 8.00752 14.6046L12.0905 17.0814C12.0313 17.341 12 17.6107 12 17.8875C12 19.9379 13.7126 21.6 15.825 21.6C17.9375 21.6 19.65 19.9379 19.65 17.8875C19.65 15.8372 17.9375 14.175 15.825 14.175C14.9242 14.175 14.0962 14.4773 13.4426 14.983L9.35962 12.5062C9.41883 12.2466 9.45005 11.9769 9.45005 11.7C9.45005 11.4232 9.41883 11.1535 9.35962 10.8939L13.4426 8.41712C14.0962 8.92281 14.9242 9.22505 15.825 9.22505Z" fill="black"/>
</svg>
