<svg width="24" height="24" viewBox="0 0 24 24" fill="none" xmlns="http://www.w3.org/2000/svg">
<path d="M17.8217 7.39492H15.2503C15.2503 5.60248 13.7922 4.14563 11.9999 4.14563C10.2077 4.14563 8.75094 5.60377 8.75094 7.39492H6.17951C6.17951 4.1855 8.79081 1.57397 11.9999 1.57397C15.2091 1.57397 17.8217 4.1855 17.8217 7.39492Z" fill="black"/>
<path d="M20.3212 9.96759H3.67888L3 22.0001H21L20.3212 9.96759ZM7.46402 15.2099C6.69131 15.2099 6.06515 14.5837 6.06515 13.8109C6.06515 13.0381 6.69131 12.4119 7.46402 12.4119C8.23673 12.4119 8.86285 13.0381 8.86285 13.8109C8.86285 14.5837 8.23673 15.2099 7.46402 15.2099ZM16.536 15.2099C15.7633 15.2099 15.1371 14.5837 15.1371 13.8109C15.1371 13.0381 15.7633 12.4119 16.536 12.4119C17.3087 12.4119 17.9349 13.0381 17.9349 13.8109C17.9349 14.5837 17.3087 15.2099 16.536 15.2099Z" fill="black"/>
</svg>
