<svg width="24" height="24" viewBox="0 0 24 24" fill="none" xmlns="http://www.w3.org/2000/svg">
<path fill-rule="evenodd" clip-rule="evenodd" d="M1.19995 11.7L5.24173 7.12704C6.83895 5.3199 9.205 4.27502 11.7 4.27502C14.1949 4.27502 16.561 5.3199 18.1582 7.12705L22.2 11.7L18.1582 16.273C16.561 18.0802 14.1949 19.125 11.7 19.125C9.205 19.125 6.83895 18.0802 5.24173 16.273L1.19995 11.7ZM11.7 15.4125C13.8746 15.4125 15.6375 13.7504 15.6375 11.7C15.6375 9.64967 13.8746 7.98752 11.7 7.98752C9.52533 7.98752 7.76245 9.64967 7.76245 11.7C7.76245 13.7504 9.52533 15.4125 11.7 15.4125Z" fill="black"/>
</svg>
