<svg width="20" height="20" viewBox="0 0 20 20" fill="none" xmlns="http://www.w3.org/2000/svg">
<path d="M7.875 8.71875L8.9375 7.6875L6.5013 5.32295L7.1237 4.71886C7.88654 3.97846 8.92118 3.5625 10 3.5625C11.0788 3.5625 12.1135 3.97846 12.8763 4.71886L12.9674 4.80733C13.7887 5.60438 14.25 6.68541 14.25 7.81261L14.25 8.71875L16.375 8.71875V7.81261C16.375 6.1384 15.6898 4.53276 14.47 3.34892L14.3789 3.26045C13.2175 2.13325 11.6424 1.5 10 1.5C8.35759 1.5 6.78246 2.13325 5.6211 3.26045L4.9987 3.86455L2.5625 1.5L1.5 2.53125V8.71875H7.875Z" fill="black"/>
<path d="M12.8763 14.7811C12.1135 15.5215 11.0788 15.9375 10 15.9375C8.92118 15.9375 7.88654 15.5215 7.1237 14.7811L7.03255 14.6927C6.21135 13.8956 5.75 12.8146 5.75 11.6874L5.75 10.7812L3.625 10.7812V11.6874C3.625 13.3616 4.31023 14.9672 5.52995 16.1511L5.6211 16.2395C6.78245 17.3667 8.35759 18 10 18C11.6424 18 13.2175 17.3667 14.3789 16.2395L15.0013 15.6355L17.4375 18L18.5 16.9688L18.5 10.7812L12.125 10.7813L11.0625 11.8125L13.4987 14.177L12.8763 14.7811Z" fill="black"/>
</svg>
