<svg width="24" height="24" viewBox="0 0 24 24" fill="none" xmlns="http://www.w3.org/2000/svg">
<path d="M2.5 2.5H14.375V7.25031H7.25001V14.3758H2.5V2.5Z" fill="black"/>
<path d="M9.625 9.61594V19.1534H17.4969L19.8434 21.5H21.5V9.61475H9.625V9.61594ZM16.2061 17.714H14.9201V16.4279H16.2061V17.714ZM15.5625 15.5384H14.9189V14.2522H15.5625C16.0945 14.2522 16.5268 13.82 16.5268 13.2879C16.5268 12.7559 16.0945 12.3236 15.5625 12.3236C15.0305 12.3236 14.5982 12.7559 14.5982 13.2879V13.6098H13.3122V13.2879C13.3122 12.0446 14.3204 11.0375 15.5625 11.0375C16.8046 11.0375 17.8128 12.0457 17.8128 13.2879C17.8128 14.5302 16.8046 15.5384 15.5625 15.5384Z" fill="black"/>
</svg>
