<svg width="24" height="24" viewBox="0 0 24 24" fill="none" xmlns="http://www.w3.org/2000/svg">
<path d="M14.325 5.24995L13.0125 3.89995L15.6375 1.19995L22.2 7.94995L19.575 10.65L18.2625 9.29995L15.6375 12L17.3344 13.7454C17.9287 14.3566 18.2625 15.1856 18.2625 16.05C18.2625 16.9143 17.9287 17.7433 17.3344 18.3545L15.6375 20.1L3.82501 7.94995L5.52193 6.20455C6.11617 5.59333 6.92213 5.24995 7.76251 5.24995C8.60289 5.24995 9.40885 5.59333 10.0031 6.20454L11.7 7.94995L14.325 5.24995Z" fill="black"/>
<path d="M1.20001 21.45L6.21571 14.2273L9.5345 17.6409L2.51251 22.8L1.20001 21.45Z" fill="black"/>
</svg>
