<svg width="24" height="24" viewBox="0 0 24 24" fill="none" xmlns="http://www.w3.org/2000/svg">
<path d="M11.8502 7.16003C11.8302 7.07003 11.8002 6.98005 11.7702 6.89005C11.3702 5.71005 10.4502 4.78004 9.26019 4.38004C9.16019 4.34004 9.0602 4.31003 8.9502 4.28003C8.8602 4.26003 8.77024 4.24003 8.68024 4.22003C8.46024 4.18003 8.23018 4.15002 8.00018 4.15002C5.79018 4.15002 4.00018 5.94002 4.00018 8.15002C4.00018 8.38002 4.03019 8.61002 4.07019 8.83002C4.09019 8.92002 4.11019 9.01004 4.13019 9.10004C4.16019 9.21004 4.19022 9.31003 4.23022 9.41003C4.63022 10.6 5.56023 11.52 6.74023 11.92C6.84023 11.96 6.94023 11.99 7.05023 12.02C7.14023 12.04 7.2302 12.06 7.3302 12.08C7.5502 12.12 7.78019 12.15 8.01019 12.15C9.87019 12.15 11.4202 10.87 11.8702 9.15002H20.0102V7.15002H11.8702L11.8502 7.16003ZM9.11023 9.82004C8.79023 10.04 8.41023 10.16 7.99023 10.16C7.81023 10.16 7.64022 10.13 7.48022 10.09C6.79022 9.91003 6.25019 9.37002 6.07019 8.68002C6.03019 8.52002 6.00018 8.35004 6.00018 8.17004C6.00018 7.89004 6.06022 7.63005 6.16022 7.39005C6.31022 7.03005 6.57019 6.73004 6.88019 6.51004C7.20019 6.29004 7.58018 6.17004 8.00018 6.17004C8.18018 6.17004 8.35019 6.20002 8.51019 6.24002C9.20019 6.42002 9.74023 6.96002 9.92023 7.65002C9.96023 7.81002 9.99023 7.98003 9.99023 8.16003C9.99023 8.44003 9.9302 8.70003 9.8302 8.94003C9.6802 9.30003 9.42023 9.60004 9.11023 9.82004Z" fill="black"/>
<path d="M19.8702 15.21C19.8402 15.1 19.8102 15 19.7702 14.9C19.3702 13.71 18.4402 12.79 17.2602 12.39C17.1602 12.35 17.0602 12.32 16.9502 12.29C16.8602 12.27 16.7702 12.25 16.6702 12.23C16.4502 12.19 16.2202 12.16 15.9902 12.16C14.1302 12.16 12.5802 13.44 12.1302 15.16H3.99023V17.16H12.1302C12.1502 17.25 12.1802 17.34 12.2102 17.43C12.6102 18.61 13.5302 19.54 14.7202 19.94C14.8202 19.98 14.9202 20.01 15.0302 20.04C15.1202 20.06 15.2102 20.08 15.3002 20.1C15.5202 20.14 15.7502 20.17 15.9802 20.17C18.1902 20.17 19.9802 18.38 19.9802 16.17C19.9802 15.94 19.9502 15.71 19.9102 15.49C19.8902 15.4 19.8702 15.31 19.8502 15.22L19.8702 15.21ZM17.8402 16.95C17.6902 17.31 17.4302 17.61 17.1202 17.83C16.8002 18.05 16.4202 18.17 16.0002 18.17C15.8202 18.17 15.6502 18.14 15.4902 18.1C14.8002 17.92 14.2602 17.38 14.0802 16.69C14.0402 16.53 14.0102 16.36 14.0102 16.18C14.0102 15.9 14.0702 15.64 14.1702 15.4C14.3202 15.04 14.5802 14.74 14.8902 14.52C15.2002 14.3 15.5902 14.18 16.0102 14.18C16.1902 14.18 16.3602 14.21 16.5202 14.25C17.2102 14.43 17.7502 14.97 17.9302 15.66C17.9702 15.82 18.0002 15.99 18.0002 16.17C18.0002 16.45 17.9402 16.71 17.8402 16.95Z" fill="black"/>
</svg>
