<svg width="24" height="24" viewBox="0 0 24 24" fill="none" xmlns="http://www.w3.org/2000/svg">
<path d="M12 6.26245C12 8.02286 10.489 9.44995 8.62501 9.44995C6.76105 9.44995 5.25001 8.02286 5.25001 6.26245C5.25001 4.50204 6.76105 3.07495 8.62501 3.07495C10.489 3.07495 12 4.50204 12 6.26245Z" fill="black"/>
<path d="M5.25001 12C3.01326 12 1.20001 13.7125 1.20001 15.825V19.65H12V12H5.25001Z" fill="black"/>
<path d="M18.75 12H14.7V19.65H22.8V15.825C22.8 13.7125 20.9868 12 18.75 12Z" fill="black"/>
<path d="M17.4 9.44995C18.8912 9.44995 20.1 8.30828 20.1 6.89995C20.1 5.49163 18.8912 4.34995 17.4 4.34995C15.9088 4.34995 14.7 5.49163 14.7 6.89995C14.7 8.30828 15.9088 9.44995 17.4 9.44995Z" fill="black"/>
</svg>
