<svg width="24" height="24" viewBox="0 0 24 24" fill="none" xmlns="http://www.w3.org/2000/svg">
<path d="M22.2 22.2H18.2625L14.7323 17.8551L11.7 20.8874L8.62457 17.8121L10.1623 16.2744C10.5701 15.8666 11.1232 15.6374 11.6999 15.6374H12.9304L10.8581 13.0868C9.89783 13.2579 9.00523 13.7191 8.30612 14.4182L6.76842 15.9559L4.91227 14.0998L6.44996 12.5621C7.19801 11.814 8.08924 11.2421 9.05925 10.8729L7.34031 8.75732C6.3311 9.2432 5.40088 9.89883 4.5938 10.7059L3.05611 12.2436L1.19995 10.3874L2.73764 8.84976C3.60639 7.98101 4.58827 7.2514 5.64865 6.67527L1.19995 1.19995H5.13745L22.2 22.2Z" fill="black"/>
<path d="M18.8061 10.7059C17.6746 9.57437 15.9939 8.48572 14.5 8L12.2851 5.15095C15.4337 5.29636 18.4236 6.6111 20.6623 8.84976L22.2 10.3874L20.3438 12.2436L18.8061 10.7059Z" fill="black"/>
</svg>
