<svg width="24" height="24" viewBox="0 0 24 24" fill="none" xmlns="http://www.w3.org/2000/svg">
<path d="M3.29381 9.23124L1.80005 10.725L3.60317 12.5281L5.09693 11.0344C6.92775 9.20354 9.41087 8.175 12 8.175C14.5892 8.175 17.0723 9.20355 18.9032 11.0344L20.3969 12.5281L22.2 10.725L20.7063 9.23125C18.3973 6.92221 15.2655 5.625 12 5.625C8.73457 5.625 5.60284 6.9222 3.29381 9.23124Z" fill="black"/>
<path d="M18.5938 14.3312L17.1001 12.8375C15.7475 11.4849 13.9129 10.725 12.0001 10.725C10.0872 10.725 8.25266 11.4849 6.90006 12.8375L5.4063 14.3312L7.20942 16.1344L8.70318 14.6406C9.57756 13.7662 10.7635 13.275 12.0001 13.275C13.2366 13.275 14.4225 13.7662 15.2969 14.6406L16.7907 16.1344L18.5938 14.3312Z" fill="black"/>
<path d="M14.9876 17.9375L13.4938 16.4437C13.0976 16.0476 12.5603 15.825 12.0001 15.825C11.4398 15.825 10.9025 16.0476 10.5063 16.4437L9.01255 17.9375L12.0001 20.925L14.9876 17.9375Z" fill="black"/>
</svg>
