<svg width="24" height="24" viewBox="0 0 24 24" fill="none" xmlns="http://www.w3.org/2000/svg">
<path fill-rule="evenodd" clip-rule="evenodd" d="M8 9.52595L10.4741 12L8 14.4741L9.52595 16L12 13.5259L14.4741 16L16 14.4741L13.5259 12L16 9.52595L14.4741 8L12 10.4741L9.52595 8L8 9.52595Z" fill="black"/>
<path fill-rule="evenodd" clip-rule="evenodd" d="M12 19.75C16.2802 19.75 19.75 16.2802 19.75 12C19.75 7.71979 16.2802 4.25 12 4.25C7.71979 4.25 4.25 7.71979 4.25 12C4.25 16.2802 7.71979 19.75 12 19.75ZM12 22C17.5228 22 22 17.5228 22 12C22 6.47715 17.5228 2 12 2C6.47715 2 2 6.47715 2 12C2 17.5228 6.47715 22 12 22Z" fill="black"/>
</svg>
