<svg width="24" height="24" viewBox="0 0 24 24" fill="none" xmlns="http://www.w3.org/2000/svg">
<path fill-rule="evenodd" clip-rule="evenodd" d="M16.3094 17.8732C14.7318 18.9891 12.7726 19.65 10.65 19.65C5.43086 19.65 1.19995 15.6542 1.19995 10.725C1.19995 5.79591 5.43086 1.80005 10.65 1.80005C15.869 1.80005 20.1 5.79591 20.1 10.725C20.1 12.7298 19.4001 14.5801 18.2186 16.0701L22.4045 20.0235L20.4954 21.8266L16.3094 17.8732ZM6.59995 9.45005H9.29995L9.29995 6.90005L12 6.90005L12 9.45005L14.7 9.45005V12L12 12V14.55H9.29995V12H6.59995L6.59995 9.45005Z" fill="black"/>
</svg>
