<svg xmlns="http://www.w3.org/2000/svg" style="display:none" aria-hidden="true">
<symbol id="icon-arrow_down" viewBox="0 0 24 24"><path d="M17.53 16.3301L17.53 14.5301L13.33 14.5301L13.33 2.12988L10.93 2.12998L10.93 14.5302L6.72998 14.5301L6.72998 16.3301L12.13 21.8699L17.53 16.3301Z" fill="currentColor"/></symbol>
<symbol id="icon-arrow_down_large" viewBox="0 0 24 24"><path d="M14.3249 12L19.5749 12.0001V14.55L11.6999 22.2L3.82495 14.55V12H9.07495V1.80005L14.3249 1.80005V12Z" fill="currentColor"/></symbol>
<symbol id="icon-arrow_in" viewBox="0 0 24 24"><path d="M4 22L4 13H5.5L11.5 19H12.5L18.5 13H20V22H4Z" fill="currentColor"/><path d="M13.5 9.51245L17 9.51245V10.7875L12 16L7 10.7875V9.51245H10.5L10.5 3L13.5 3V9.51245Z" fill="currentColor"/></symbol>
<symbol id="icon-arrow_left" viewBox="0 0 24 24"><path d="M7.7998 17.4001H9.59981L9.59978 13.2001L22 13.2001L21.9999 10.8001L9.59969 10.8001L9.59981 6.6001H7.79981L2.25994 12.0001L7.7998 17.4001Z" fill="currentColor"/></symbol>
<symbol id="icon-arrow_left_large" viewBox="0 0 24 24"><path d="M11.7 14.5501L11.7 19.6501L9.22497 19.6501L1.79998 12.0001L9.22498 4.3501L11.7 4.3501L11.7 9.45009L21.6 9.45009L21.6 14.5501L11.7 14.5501Z" fill="currentColor"/></symbol>
<symbol id="icon-arrow_right" viewBox="0 0 24 24"><path d="M16.4601 6.5999L14.6601 6.5999L14.6601 10.7999L2.25989 10.7999L2.25998 13.1999L14.6602 13.1999L14.6601 17.3999L16.4601 17.3999L21.9999 11.9999L16.4601 6.5999Z" fill="currentColor"/></symbol>
<symbol id="icon-arrow_right_down" viewBox="0 0 24 24"><path d="M19.0102 11.2434L17.7374 9.97062L14.7676 12.9405L5.99931 4.1722L4.30232 5.86932L13.0706 14.6376L10.1007 17.6074L11.3735 18.8802L19.1091 18.9791L19.0102 11.2434Z" fill="currentColor"/></symbol>
<symbol id="icon-arrow_right_down_large" viewBox="0 0 24 24"><g clip-path="url(#clip0_1_5116)"><path d="M13.5561 9.84375L17.2684 6.13144L19.1246 7.9876L19.1246 19.1245L7.98762 19.1245L6.13147 17.2684L9.84378 13.5561L2.41916 6.13144L6.13147 2.41913L13.5561 9.84375Z" fill="currentColor"/></g><defs><clipPath id="clip0_1_5116"><rect width="24" height="24" fill="white"/></clipPath></defs></symbol>
<symbol id="icon-arrow_right_large" viewBox="0 0 24 24"><path d="M11.7 9.07495L11.7 3.82495L14.325 3.82495L22.2 11.7L14.325 19.575L11.7 19.575L11.7 14.325L1.19995 14.325L1.19995 9.07495L11.7 9.07495Z" fill="currentColor"/></symbol>
<symbol id="icon-arrow_right_up" viewBox="0 0 24 24"><path d="M12.8865 18.8802L14.1593 17.6074L11.1894 14.6376L19.9577 5.8693L18.2606 4.17231L9.49228 12.9406L6.52252 9.97065L5.24972 11.2434L5.15082 18.9791L12.8865 18.8802Z" fill="currentColor"/></symbol>
<symbol id="icon-arrow_right_up_large" viewBox="0 0 24 24"><g clip-path="url(#clip0_1_5124)"><path d="M9.89688 10.1968L6.29063 6.59058L8.04072 4.84049L18.7004 4.99959L18.8595 15.6592L17.1094 17.4093L13.5031 13.8031L6.50277 20.8034L2.89652 17.1972L9.89688 10.1968Z" fill="currentColor"/></g><defs><clipPath id="clip0_1_5124"><rect width="24" height="24" fill="white"/></clipPath></defs></symbol>
<symbol id="icon-arrow_up" viewBox="0 0 24 24"><path d="M6.73003 7.66991L6.73003 9.46992L10.93 9.4699L10.93 21.8701L13.33 21.87L13.33 9.4698L17.53 9.46993L17.53 7.66992L12.13 2.13006L6.73003 7.66991Z" fill="currentColor"/></symbol>
<symbol id="icon-arrow_up_large" viewBox="0 0 24 24"><path d="M9.45003 11.7L4.35002 11.6999L4.35002 9.07495L12 1.19995L19.65 9.07495L19.65 11.7L14.55 11.7L14.55 22.2L9.45003 22.2L9.45003 11.7Z" fill="currentColor"/></symbol>
<symbol id="icon-bolt" viewBox="0 0 24 24"><path d="M13.6 22H12.1708V14.8569H4C6.79907 11.0848 9.17123 6.31409 10.4 2H11.8293V9.14312H20C17.2009 12.9152 14.8288 17.6859 13.6 22Z" fill="currentColor"/></symbol>
<symbol id="icon-bolt_api" viewBox="0 0 24 24"><path d="M23 13.375V10.625L19.9723 9.86738C19.7825 9.16063 19.5034 8.49101 19.1445 7.87089L20.7505 5.19373L18.8063 3.24948L16.1292 4.85548C15.509 4.49661 14.8394 4.21749 14.1327 4.02774L13.375 1H10.625L9.86738 4.02774C9.16063 4.21749 8.49101 4.49661 7.87089 4.85548L5.19378 3.24948L3.24952 5.19373L4.85552 7.87089C4.49665 8.49101 4.21749 9.16063 4.02774 9.86738L1 10.625V13.375L4.02774 14.1326C4.21749 14.8394 4.49665 15.509 4.85552 16.1291L3.24952 18.8063L5.19378 20.7505L7.87089 19.1445C8.49101 19.5034 9.16063 19.7825 9.86738 19.9723L10.625 23H13.375L14.1327 19.9723C14.8394 19.7825 15.509 19.5034 16.1292 19.1445L18.8063 20.7505L20.7505 18.8063L19.1445 16.1291C19.5034 15.509 19.7825 14.8394 19.9723 14.1326L23 13.375ZM13.0725 16.7217H11.7635V13.3489H7.90525C9.228 11.5682 10.3473 9.31463 10.9275 7.27688H12.2365V10.6498H16.0947C14.772 12.4304 13.6527 14.684 13.0725 16.7217Z" fill="currentColor"/></symbol>
<symbol id="icon-bolt_card" viewBox="0 0 24 24"><path d="M22.3606 9.94562H13.4222L13.8161 7.91941H1.69995V4H22.3606V9.94562Z" fill="currentColor"/><path d="M1.69995 10.9105H10.6369L10.2431 12.8179H22.3606V19.497H1.69995V10.9105Z" fill="currentColor"/></symbol>
<symbol id="icon-bolt_circle" viewBox="0 0 24 24"><path d="M12 2C6.4775 2 2 6.4775 2 12C2 17.5225 6.4775 22 12 22C17.5225 22 22 17.5225 22 12C22 6.4775 17.5225 2 12 2ZM13.0775 18.7337H12.115V13.9238H6.6125C8.4975 11.3838 10.095 8.17126 10.9225 5.26626H11.885V10.0762H17.3875C15.5025 12.6162 13.905 15.8287 13.0775 18.7337Z" fill="currentColor"/></symbol>
<symbol id="icon-bolt_fraud" viewBox="0 0 24 24"><path fill-rule="evenodd" clip-rule="evenodd" d="M12.9135 2.58053C16.2418 2.71241 19.4808 3.7015 22.4107 5.28543L22.4094 5.28682L23 5.60552L20.25 19.435L12 22.9999L3.75002 19.435L1 5.60552L1.55632 5.30467C4.7555 3.57513 8.32142 2.56954 11.9574 2.56267C12.2761 2.5613 12.5948 2.56817 12.9135 2.58053ZM10.9287 7.27448H12.2377V10.6484H16.0963C14.7748 12.4301 13.654 14.6831 13.0743 16.7204H11.7652V13.3464H7.90672C9.22815 11.5647 10.349 9.31175 10.9287 7.27448Z" fill="currentColor"/></symbol>
<symbol id="icon-bolt_network" viewBox="0 0 24 24"><path d="M13.375 1H10.625V5.12536H13.375V1Z" fill="currentColor"/><path d="M13.375 18.8762H10.625V23.0015H13.375V18.8762Z" fill="currentColor"/><path d="M5.125 10.6257H1V13.3759H5.125V10.6257Z" fill="currentColor"/><path d="M23 10.6257H18.875V13.3759H23V10.6257Z" fill="currentColor"/><path d="M5.19291 3.25079L3.2485 5.19564L6.16552 8.11251L8.10993 6.16766L5.19291 3.25079Z" fill="currentColor"/><path d="M17.8332 15.8925L15.8888 17.8373L18.8058 20.7542L20.7502 18.8093L17.8332 15.8925Z" fill="currentColor"/><path d="M6.16512 15.8931L3.24861 18.8104L5.19336 20.7549L8.10987 17.8376L6.16512 15.8931Z" fill="currentColor"/><path d="M18.805 3.25213L15.8885 6.16951L17.8332 8.11402L20.7497 5.19664L18.805 3.25213Z" fill="currentColor"/><path d="M11.7635 16.7228H13.0725C13.6527 14.6848 14.772 12.4324 16.0947 10.6503H12.2365V7.27708H10.9275C10.3472 9.31501 9.22799 11.5674 7.90523 13.3496H11.7635V16.7228Z" fill="currentColor"/></symbol>
<symbol id="icon-bookmark" viewBox="0 0 24 24"><path d="M4.34998 1.19995H19.65V22.2H17.1L12 16.95L6.89998 22.2H4.34998V1.19995Z" fill="currentColor"/></symbol>
<symbol id="icon-box" viewBox="0 0 24 24"><path d="M1.80005 4.3501H21.6V8.1751H1.80005V4.3501Z" fill="currentColor"/><path d="M7.98755 10.7251H3.03755V20.9251H20.3625V10.7251H15.4125V13.2751H7.98755V10.7251Z" fill="currentColor"/></symbol>
<symbol id="icon-briefcase" viewBox="0 0 24 24"><rect x="3" y="9" width="18" height="12" fill="currentColor"/><rect x="8.25" y="5.25" width="7.5" height="5.5" stroke="currentColor" stroke-width="2.5"/></symbol>
<symbol id="icon-building" viewBox="0 0 24 24"><path fill-rule="evenodd" clip-rule="evenodd" d="M15.825 3.07495H3.07495V20.925H5.62495V15.825H8.17495V20.925H20.925V13.275H15.825V3.07495ZM8.17495 5.62495H5.62495V8.17495H8.17495V5.62495ZM13.275 5.62495H10.725V8.17495H13.275V5.62495ZM10.725 10.725H13.275V13.275H10.725V10.725ZM15.825 15.825H18.375V18.375H15.825V15.825Z" fill="currentColor"/></symbol>
<symbol id="icon-calendar" viewBox="0 0 24 24"><path d="M9.07495 1.80005H5.13745V4.35005H2.51245V8.17505H20.8875V4.35005H18.2625V1.80005H14.325V4.35005H9.07495V1.80005Z" fill="currentColor"/><path d="M20.8875 10.725H2.51245V20.925H20.8875V10.725Z" fill="currentColor"/></symbol>
<symbol id="icon-camera" viewBox="0 0 24 24"><path fill-rule="evenodd" clip-rule="evenodd" d="M5.13745 5.62495H1.19995V19.65H22.2V5.62495H18.2625L15.6375 3.07495H7.76245L5.13745 5.62495ZM11.7 15.825C13.8746 15.825 15.6375 14.1124 15.6375 12C15.6375 9.88746 13.8746 8.17495 11.7 8.17495C9.52533 8.17495 7.76245 9.88746 7.76245 12C7.76245 14.1124 9.52533 15.825 11.7 15.825Z" fill="currentColor"/></symbol>
<symbol id="icon-chart_bar" viewBox="0 0 24 24"><path d="M15 18.5V10.5H18V18.5H15Z" fill="currentColor"/><path d="M10.5 18.5V6.5H13.5V18.5H10.5Z" fill="currentColor"/><path d="M6 18.5L6 12.5H9L9 18.5H6Z" fill="currentColor"/><path fill-rule="evenodd" clip-rule="evenodd" d="M19 4.5H5V19.5H19V4.5ZM2 1.5V22.5H22V1.5H2Z" fill="currentColor"/></symbol>
<symbol id="icon-check_circle" viewBox="0 0 24 24"><path fill-rule="evenodd" clip-rule="evenodd" d="M12 22C17.5228 22 22 17.5228 22 12C22 6.47715 17.5228 2 12 2C6.47715 2 2 6.47715 2 12C2 17.5228 6.47715 22 12 22ZM17.8839 9.13388L16.1161 7.36612L10.125 13.3572L7.88388 11.1161L6.11612 12.8839L10.125 16.8928L17.8839 9.13388Z" fill="currentColor"/></symbol>
<symbol id="icon-check_outline" viewBox="0 0 24 24"><path d="M8 11.1016L6.19922 12.9023L10.293 17L18 9.28125L16.1992 7.47656L10.2891 13.3867L8 11.1016Z" fill="currentColor"/><path fill-rule="evenodd" clip-rule="evenodd" d="M12 19.75C16.2802 19.75 19.75 16.2802 19.75 12C19.75 7.71979 16.2802 4.25 12 4.25C7.71979 4.25 4.25 7.71979 4.25 12C4.25 16.2802 7.71979 19.75 12 19.75ZM12 22C17.5228 22 22 17.5228 22 12C22 6.47715 17.5228 2 12 2C6.47715 2 2 6.47715 2 12C2 17.5228 6.47715 22 12 22Z" fill="currentColor"/></symbol>
<symbol id="icon-checklist" viewBox="0 0 24 24"><path fill-rule="evenodd" clip-rule="evenodd" d="M9.20712 4.70706L5.00001 8.91417L2.29291 6.20706L3.70712 4.79285L5.00001 6.08574L7.79291 3.29285L9.20712 4.70706Z" fill="currentColor"/><path fill-rule="evenodd" clip-rule="evenodd" d="M22 7.74995H11V5.24995H22V7.74995Z" fill="currentColor"/><path fill-rule="evenodd" clip-rule="evenodd" d="M9.20712 11.2071L5.00001 15.4142L2.29291 12.7071L3.70712 11.2928L5.00001 12.5857L7.79291 9.79285L9.20712 11.2071Z" fill="currentColor"/><path fill-rule="evenodd" clip-rule="evenodd" d="M22 14.25H11V11.75H22V14.25Z" fill="currentColor"/><path fill-rule="evenodd" clip-rule="evenodd" d="M9.20712 17.4571L5.00001 21.6642L2.29291 18.9571L3.70712 17.5428L5.00001 18.8357L7.79291 16.0428L9.20712 17.4571Z" fill="currentColor"/><path fill-rule="evenodd" clip-rule="evenodd" d="M22 20.25H11V17.75H22V20.25Z" fill="currentColor"/></symbol>
<symbol id="icon-checkmark" viewBox="0 0 24 24"><path fill-rule="evenodd" clip-rule="evenodd" d="M21.5 6.81031L9.19812 19L2.5 12.3659L4.83904 10.0555L9.19812 14.3794L19.161 4.5L21.5 6.81031Z" fill="currentColor"/></symbol>
<symbol id="icon-checkmark_large" viewBox="0 0 24 24"><path fill-rule="evenodd" clip-rule="evenodd" d="M21.4312 7.42802L9.07503 19.4311L1.96887 12.528L5.68118 8.92178L9.07503 12.2187L17.7189 3.82178L21.4312 7.42802Z" fill="currentColor"/></symbol>
<symbol id="icon-chevron_down" viewBox="0 0 24 24"><path fill-rule="evenodd" clip-rule="evenodd" d="M12.0001 12.5942L16.5472 8.04715L18.5 10L12.0001 16.4999L5.50019 10L7.45303 8.04715L12.0001 12.5942Z" fill="currentColor"/></symbol>
<symbol id="icon-chevron_left" viewBox="0 0 24 24"><path fill-rule="evenodd" clip-rule="evenodd" d="M11.4058 11.9998L15.9528 16.5469L14 18.4998L7.50009 11.9998L14 5.49994L15.9528 7.45279L11.4058 11.9998Z" fill="currentColor"/></symbol>
<symbol id="icon-chevron_right" viewBox="0 0 24 24"><path fill-rule="evenodd" clip-rule="evenodd" d="M12.5942 11.9999L8.04715 7.45285L10 5.5L16.4999 11.9999L10 18.4998L8.04715 16.547L12.5942 11.9999Z" fill="currentColor"/></symbol>
<symbol id="icon-chevron_up" viewBox="0 0 24 24"><path fill-rule="evenodd" clip-rule="evenodd" d="M11.9999 11.4058L7.45285 15.9528L5.5 14L11.9999 7.50009L18.4998 14L16.547 15.9528L11.9999 11.4058Z" fill="currentColor"/></symbol>
<symbol id="icon-clock" viewBox="0 0 24 24"><path fill-rule="evenodd" clip-rule="evenodd" d="M11.7 22.2C17.1677 22.2 21.6 17.4989 21.6 11.7C21.6 5.90096 17.1677 1.19995 11.7 1.19995C6.23243 1.19995 1.80005 5.90096 1.80005 11.7C1.80005 17.4989 6.23243 22.2 11.7 22.2ZM10.4625 5.13745V12.2436L14.5375 16.5655L16.2876 14.7094L12.9375 11.1563V5.13745H10.4625Z" fill="currentColor"/></symbol>
<symbol id="icon-console" viewBox="0 0 24 24"><path fill-rule="evenodd" clip-rule="evenodd" d="M21.5 2.5H2.5V21.5H21.5V2.5ZM12.5 15.5H18.5V18.5H12.5V15.5ZM6 13.2833L8.68629 10.5L6 7.71669L7.65686 6L12 10.5L7.65685 15L6 13.2833Z" fill="currentColor"/></symbol>
<symbol id="icon-copy" viewBox="0 0 24 24"><path d="M1.19995 1.19995H14.7V6.44995H6.59995V14.325H1.19995V1.19995Z" fill="currentColor"/><path d="M22.8 9.07495H9.29995V22.2H22.8V9.07495Z" fill="currentColor"/></symbol>
<symbol id="icon-credit_card" viewBox="0 0 24 24"><path d="M21.6 3.82495H1.80005V7.76245H21.6V3.82495Z" fill="currentColor"/><path d="M21.6 10.3875H1.80005V19.575H21.6V10.3875Z" fill="currentColor"/></symbol>
<symbol id="icon-dashboard" viewBox="0 0 24 24"><path d="M2.51245 2.51245H10.3875V10.3875H2.51245V2.51245Z" fill="currentColor"/><path d="M13.0125 2.51245H20.8875V10.3875H13.0125V2.51245Z" fill="currentColor"/><path d="M2.51245 13.0125H10.3875V20.8875H2.51245V13.0125Z" fill="currentColor"/><path d="M13.0125 13.0125H20.8875V20.8875H13.0125V13.0125Z" fill="currentColor"/></symbol>
<symbol id="icon-delivery" viewBox="0 0 24 24"><path fill-rule="evenodd" clip-rule="evenodd" d="M15.75 4H2V18.3846H4.5C4.5 19.8296 5.61875 21 7 21C8.38125 21 9.5 19.8296 9.5 18.3846H14.5C14.5 19.8296 15.6188 21 17 21C18.3813 21 19.5 19.8296 19.5 18.3846H22V11.8462C22 9.67931 20.3213 7.92308 18.25 7.92308H15.75V4ZM15.75 10.5385V13.1538H19.5V10.5385H15.75Z" fill="currentColor"/></symbol>
<symbol id="icon-desktop" viewBox="0 0 24 24"><path fill-rule="evenodd" clip-rule="evenodd" d="M22 2.5H2V17.5H22V2.5ZM19 5.5H5V14.5H19V5.5Z" fill="currentColor"/><path d="M10 16.5H14V19.5H10V16.5Z" fill="currentColor"/><path d="M8 19.5H16V22.5H8V19.5Z" fill="currentColor"/></symbol>
<symbol id="icon-document" viewBox="0 0 24 24"><path d="M10.8333 3H5V21H19V10.875H10.8333V3Z" fill="currentColor"/><path d="M13.1667 3V8.625H19L13.1667 3Z" fill="currentColor"/></symbol>
<symbol id="icon-dollar_circle" viewBox="0 0 24 24"><path d="M12 2C6.4775 2 2 6.4775 2 12C2 17.5225 6.4775 22 12 22C17.5225 22 22 17.5225 22 12C22 6.4775 17.5225 2 12 2ZM15.7475 9.84248V10.0675H13.545V9.80373C13.545 9.33873 13.415 8.98124 13.1562 8.73374C12.8975 8.48499 12.53 8.36124 12.055 8.36124C11.755 8.36124 11.4937 8.40748 11.2712 8.49998C10.6825 8.74748 10.4587 9.59624 10.7512 10.145C10.8337 10.3 10.9737 10.4287 11.17 10.5325C11.3662 10.6362 11.625 10.73 11.9462 10.8112L13.1725 11.1225C13.6687 11.2363 14.095 11.4087 14.4525 11.6425C14.81 11.875 15.0912 12.1713 15.2987 12.5338C15.4125 12.7613 15.5025 13.01 15.57 13.2787C15.6375 13.5475 15.67 13.8375 15.67 14.1475C15.67 14.4887 15.6362 14.7962 15.57 15.07C15.5025 15.3437 15.4012 15.6163 15.2675 15.885C14.9462 16.3925 14.5087 16.7775 13.9562 17.0412C13.6787 17.1737 13.3712 17.2725 13.035 17.3387V18.9125H10.905V17.3425C10.5725 17.2775 10.265 17.1812 9.98374 17.05C9.43124 16.7912 9.00375 16.4062 8.70375 15.8937C8.40375 15.3825 8.25375 14.77 8.25375 14.055V13.7762H10.5037V14.025C10.5037 14.3462 10.5575 14.62 10.6662 14.8475C10.775 15.075 10.9425 15.2462 11.17 15.36C11.3975 15.4737 11.6612 15.53 11.9612 15.53C12.2925 15.53 12.5662 15.4787 12.7837 15.375C13.0825 15.2325 13.285 14.94 13.3687 14.6225C13.4525 14.305 13.4137 13.9525 13.2412 13.6713C12.995 13.27 12.545 13.135 12.1175 13.0162L10.86 12.7225C10.3425 12.5975 9.9075 12.4225 9.55625 12.195C9.20375 11.9675 8.93624 11.6887 8.74874 11.3562C8.60374 11.1087 8.50499 10.8525 8.45374 10.5888C8.40124 10.325 8.37625 10.0275 8.37625 9.69623C8.37625 9.38748 8.41249 9.09123 8.48499 8.81248C8.5575 8.53373 8.66 8.25874 8.795 7.98999C9.085 7.50374 9.51125 7.12623 10.075 6.85748C10.33 6.73498 10.61 6.64998 10.9025 6.58248V5.0875H13.0325V6.5425C13.3975 6.60625 13.7375 6.70123 14.0387 6.84123C14.5975 7.09998 15.0212 7.47749 15.3112 7.97374C15.6012 8.47124 15.7462 9.06625 15.7462 9.75875V9.84374L15.7475 9.84248Z" fill="currentColor"/></symbol>
<symbol id="icon-dollar_circle_outline" viewBox="0 0 24 24"><path fill-rule="evenodd" clip-rule="evenodd" d="M12 19.75C16.2802 19.75 19.75 16.2802 19.75 12C19.75 7.71979 16.2802 4.25 12 4.25C7.71979 4.25 4.25 7.71979 4.25 12C4.25 16.2802 7.71979 19.75 12 19.75ZM12 22C17.5228 22 22 17.5228 22 12C22 6.47715 17.5228 2 12 2C6.47715 2 2 6.47715 2 12C2 17.5228 6.47715 22 12 22Z" fill="currentColor"/><path d="M15.5 10.1828V9.97123L15.4988 9.97242V9.8925C15.4988 9.24132 15.3634 8.68182 15.0925 8.214C14.8216 7.74737 14.4258 7.39239 13.9038 7.14908C13.6224 7.01743 13.3048 6.92812 12.9639 6.86818V5.5H10.9742V6.90577C10.701 6.96924 10.4395 7.04917 10.2013 7.16436C9.67465 7.41707 9.27648 7.77205 9.00559 8.22928C8.87948 8.482 8.78373 8.74057 8.71601 9.00269C8.64829 9.26481 8.61443 9.54338 8.61443 9.8337C8.61443 10.1452 8.63778 10.425 8.68682 10.673C8.73469 10.921 8.82693 11.1619 8.96238 11.3946C9.13753 11.7073 9.38741 11.9694 9.71668 12.1834C10.0448 12.3973 10.4511 12.5618 10.9345 12.6794L12.1092 12.9556C12.5085 13.0673 12.9289 13.1942 13.1589 13.5715C13.32 13.836 13.3562 14.1674 13.278 14.466C13.1997 14.7645 13.0106 15.0396 12.7315 15.1736C12.5284 15.2711 12.2726 15.3194 11.9632 15.3194C11.683 15.3194 11.4366 15.2664 11.2241 15.1595C11.0116 15.0525 10.8551 14.8915 10.7535 14.6776C10.652 14.4636 10.6017 14.2062 10.6017 13.9042V13.6702H8.5V13.9323C8.5 14.6047 8.64012 15.1806 8.92035 15.6614C9.20058 16.1433 9.59991 16.5053 10.116 16.7486C10.3787 16.872 10.666 16.9626 10.9766 17.0237V18.5H12.9662V17.0202C13.2803 16.9579 13.5676 16.865 13.8268 16.7404C14.3429 16.4924 14.7515 16.1304 15.0516 15.6532C15.1766 15.4005 15.2711 15.1442 15.3342 14.8868C15.3961 14.6294 15.4276 14.3402 15.4276 14.0193C15.4276 13.7278 15.3972 13.4551 15.3342 13.2024C15.2711 12.9497 15.1871 12.7158 15.0808 12.5019C14.887 12.161 14.6243 11.8824 14.2903 11.6638C13.9564 11.444 13.5582 11.2818 13.0947 11.1749L11.9492 10.8822C11.6491 10.8058 11.4074 10.7176 11.2241 10.6201C11.0408 10.5225 10.91 10.4014 10.8329 10.2557C10.5597 9.73968 10.7687 8.94157 11.3187 8.70884C11.5265 8.62186 11.7706 8.57838 12.0508 8.57838C12.4945 8.57838 12.8378 8.69475 13.0795 8.92865C13.3212 9.16138 13.4426 9.49754 13.4426 9.93479V10.1828H15.5Z" fill="currentColor"/></symbol>
<symbol id="icon-download" viewBox="0 0 24 24"><path d="M18.3751 10.3875H14.5501V1.19995H9.4501V10.3875L5.6251 10.3874V11.7L12.0001 18.2625L18.3751 11.7V10.3875Z" fill="currentColor"/><path d="M19.6501 19.575H4.3501V22.2H19.6501V19.575Z" fill="currentColor"/></symbol>
<symbol id="icon-empty_circle_outline" viewBox="0 0 24 24"><path fill-rule="evenodd" clip-rule="evenodd" d="M12 19.75C16.2802 19.75 19.75 16.2802 19.75 12C19.75 7.71979 16.2802 4.25 12 4.25C7.71979 4.25 4.25 7.71979 4.25 12C4.25 16.2802 7.71979 19.75 12 19.75ZM12 22C17.5228 22 22 17.5228 22 12C22 6.47715 17.5228 2 12 2C6.47715 2 2 6.47715 2 12C2 17.5228 6.47715 22 12 22Z" fill="currentColor"/></symbol>
<symbol id="icon-envelope" viewBox="0 0 24 24"><path d="M1.80005 8.23298V19.5749H21.6V8.23298L11.7 14.7955L1.80005 8.23298Z" fill="currentColor"/><path d="M21.6 5.13745V3.82495H1.80005V5.13745L11.7 11.7L21.6 5.13745Z" fill="currentColor"/></symbol>
<symbol id="icon-exclamation_circle" viewBox="0 0 24 24"><path fill-rule="evenodd" clip-rule="evenodd" d="M12 22C17.5228 22 22 17.5228 22 12C22 6.47715 17.5228 2 12 2C6.47715 2 2 6.47715 2 12C2 17.5228 6.47715 22 12 22ZM10.75 13.25V5.75H13.25V13.25H10.75ZM10.75 18.25V15.75H13.25V18.25H10.75Z" fill="currentColor"/></symbol>
<symbol id="icon-exclamation_outline" viewBox="0 0 24 24"><path fill-rule="evenodd" clip-rule="evenodd" d="M12 19.75C16.2802 19.75 19.75 16.2802 19.75 12C19.75 7.71979 16.2802 4.25 12 4.25C7.71979 4.25 4.25 7.71979 4.25 12C4.25 16.2802 7.71979 19.75 12 19.75ZM12 22C17.5228 22 22 17.5228 22 12C22 6.47715 17.5228 2 12 2C6.47715 2 2 6.47715 2 12C2 17.5228 6.47715 22 12 22Z" fill="currentColor"/><path d="M10.75 6.4998H13.25V13.4998H10.75V6.4998Z" fill="currentColor"/><path d="M10.75 14.9998H13.25V17.4998H10.75V14.9998Z" fill="currentColor"/></symbol>
<symbol id="icon-fast_forward" viewBox="0 0 24 24"><path d="M5.62495 19.5749H3.07495L3.07495 3.82495H5.62495L12 10.3874L12 3.82495H14.55L22.2 11.6999L14.55 19.5749H12L12 13.0124L5.62495 19.5749Z" fill="currentColor"/></symbol>
<symbol id="icon-file_types_csv" viewBox="0 0 24 24"><path d="M2 17H30V29C30 30.6569 28.6569 32 27 32H5C3.34315 32 2 30.6569 2 29V17Z" fill="#DAD9D7"/><path d="M5 31H27C28.6569 31 30 29.6569 30 28V9L21 0H5C3.34315 0 2 1.34315 2 3V28C2 29.6569 3.34315 31 5 31Z" fill="#EEEDEB"/><path d="M21 6V0L30 9H24C22.3431 9 21 7.65685 21 6Z" fill="#C4C3C0"/><rect y="13" width="26.4693" height="14" rx="2" fill="#00AE49"/><path d="M6.43884 23.8273C8.22815 23.8273 9.52527 22.7045 9.66882 21.1305L9.67395 21.0741H8.16663L8.15637 21.1254C7.95642 22.0021 7.33093 22.5148 6.43884 22.5148C5.25452 22.5148 4.49573 21.5509 4.49573 19.9923V19.9872C4.49573 18.4388 5.25452 17.4852 6.43884 17.4852C7.36169 17.4852 7.96667 18.0184 8.14099 18.8336L8.1615 18.9208H9.66882L9.6637 18.8746C9.52014 17.3058 8.23328 16.1727 6.43884 16.1727C4.2804 16.1727 2.91663 17.6083 2.91663 19.9923V19.9974C2.91663 22.3815 4.27527 23.8273 6.43884 23.8273Z" fill="white"/><path d="M13.3346 23.8273C15.2008 23.8273 16.3185 22.9249 16.3185 21.5048V21.4996C16.3185 20.3358 15.6212 19.7052 14.0729 19.3976L13.2885 19.2386C12.4374 19.0695 12.058 18.7977 12.058 18.3312V18.326C12.058 17.798 12.5348 17.434 13.3295 17.4288C14.0934 17.4288 14.6266 17.7826 14.7035 18.3619L14.7086 18.4235H16.1698L16.1647 18.326C16.0929 17.0289 15.0419 16.1727 13.3295 16.1727C11.6888 16.1727 10.5096 17.0648 10.5096 18.4183V18.4235C10.5096 19.536 11.2479 20.2333 12.7091 20.5255L13.4884 20.6793C14.4061 20.869 14.7701 21.1202 14.7701 21.6227V21.6278C14.7701 22.1918 14.2318 22.566 13.3756 22.566C12.5297 22.566 11.9196 22.2072 11.8221 21.6329L11.8119 21.5765H10.3507L10.3558 21.6586C10.443 23.0223 11.576 23.8273 13.3346 23.8273Z" fill="white"/><path d="M19.1896 23.6991H21.0763L23.5526 16.3009H21.8351L20.1483 22.1149H20.1176L18.4257 16.3009H16.7133L19.1896 23.6991Z" fill="white"/></symbol>
<symbol id="icon-file_types_doc" viewBox="0 0 24 24"><path d="M2 17H30V29C30 30.6569 28.6569 32 27 32H5C3.34315 32 2 30.6569 2 29V17Z" fill="#DAD9D7"/><path d="M5 31H27C28.6569 31 30 29.6569 30 28V9L21 0H5C3.34315 0 2 1.34315 2 3V28C2 29.6569 3.34315 31 5 31Z" fill="#EEEDEB"/><path d="M21 6V0L30 9H24C22.3431 9 21 7.65685 21 6Z" fill="#C4C3C0"/><rect y="13" width="27.6178" height="14" rx="2" fill="#006DFF"/><path d="M2.91663 23.6991H5.74158C7.96155 23.6991 9.26892 22.3199 9.26892 19.9718V19.9615C9.26892 17.6185 7.95642 16.3009 5.74158 16.3009H2.91663V23.6991ZM4.46497 22.4174V17.5775H5.55701C6.91565 17.5775 7.68982 18.4235 7.68982 19.9667V19.9769C7.68982 21.5765 6.94128 22.4174 5.55701 22.4174H4.46497Z" fill="white"/><path d="M13.6063 23.8273C15.8058 23.8273 17.1747 22.3558 17.1747 20.0026V19.9923C17.1747 17.6442 15.8007 16.1727 13.6063 16.1727C11.4171 16.1727 10.038 17.639 10.038 19.9923V20.0026C10.038 22.3558 11.4069 23.8273 13.6063 23.8273ZM13.6063 22.5148C12.3912 22.5148 11.6171 21.5509 11.6171 20.0026V19.9923C11.6171 18.444 12.3964 17.4852 13.6063 17.4852C14.8214 17.4852 15.5956 18.4491 15.5956 19.9923V20.0026C15.5956 21.5355 14.8368 22.5148 13.6063 22.5148Z" fill="white"/><path d="M21.4659 23.8273C23.2552 23.8273 24.5524 22.7045 24.6959 21.1305L24.701 21.0741H23.1937L23.1835 21.1254C22.9835 22.0021 22.358 22.5148 21.4659 22.5148C20.2816 22.5148 19.5228 21.5509 19.5228 19.9923V19.9872C19.5228 18.4388 20.2816 17.4852 21.4659 17.4852C22.3888 17.4852 22.9938 18.0184 23.1681 18.8336L23.1886 18.9208H24.6959L24.6908 18.8746C24.5472 17.3058 23.2604 16.1727 21.4659 16.1727C19.3075 16.1727 17.9437 17.6083 17.9437 19.9923V19.9974C17.9437 22.3815 19.3024 23.8273 21.4659 23.8273Z" fill="white"/></symbol>
<symbol id="icon-file_types_docm" viewBox="0 0 24 24"><path d="M2 17H30V29C30 30.6569 28.6569 32 27 32H5C3.34315 32 2 30.6569 2 29V17Z" fill="#DAD9D7"/><path d="M5 31H27C28.6569 31 30 29.6569 30 28V9L21 0H5C3.34315 0 2 1.34315 2 3V28C2 29.6569 3.34315 31 5 31Z" fill="#EEEDEB"/><path d="M21 6V0L30 9H24C22.3431 9 21 7.65685 21 6Z" fill="#C4C3C0"/><rect y="13" width="36.39" height="14" rx="2" fill="#006DFF"/><path d="M2.91663 23.6991H5.74158C7.96155 23.6991 9.26892 22.3199 9.26892 19.9718V19.9615C9.26892 17.6185 7.95642 16.3009 5.74158 16.3009H2.91663V23.6991ZM4.46497 22.4174V17.5775H5.55701C6.91565 17.5775 7.68982 18.4235 7.68982 19.9667V19.9769C7.68982 21.5765 6.94128 22.4174 5.55701 22.4174H4.46497Z" fill="white"/><path d="M13.6063 23.8273C15.8058 23.8273 17.1747 22.3558 17.1747 20.0026V19.9923C17.1747 17.6442 15.8007 16.1727 13.6063 16.1727C11.4171 16.1727 10.038 17.639 10.038 19.9923V20.0026C10.038 22.3558 11.4069 23.8273 13.6063 23.8273ZM13.6063 22.5148C12.3912 22.5148 11.6171 21.5509 11.6171 20.0026V19.9923C11.6171 18.444 12.3964 17.4852 13.6063 17.4852C14.8214 17.4852 15.5956 18.4491 15.5956 19.9923V20.0026C15.5956 21.5355 14.8368 22.5148 13.6063 22.5148Z" fill="white"/><path d="M21.4659 23.8273C23.2553 23.8273 24.5524 22.7045 24.6959 21.1305L24.7011 21.0741H23.1937L23.1835 21.1254C22.9835 22.0021 22.358 22.5148 21.4659 22.5148C20.2816 22.5148 19.5228 21.5509 19.5228 19.9923V19.9872C19.5228 18.4388 20.2816 17.4852 21.4659 17.4852C22.3888 17.4852 22.9938 18.0184 23.1681 18.8336L23.1886 18.9208H24.6959L24.6908 18.8746C24.5472 17.3058 23.2604 16.1727 21.4659 16.1727C19.3075 16.1727 17.9437 17.6083 17.9437 19.9923V19.9974C17.9437 22.3815 19.3024 23.8273 21.4659 23.8273Z" fill="white"/><path d="M25.6598 23.6991H27.0389V18.6952H27.08L29.0795 23.6991H30.0536L32.048 18.6952H32.0941V23.6991H33.4733V16.3009H31.684L29.5819 21.6176H29.5512L27.4491 16.3009H25.6598V23.6991Z" fill="white"/></symbol>
<symbol id="icon-file_types_docx" viewBox="0 0 24 24"><path d="M2 17H30V29C30 30.6569 28.6569 32 27 32H5C3.34315 32 2 30.6569 2 29V17Z" fill="#DAD9D7"/><path d="M5 31H27C28.6569 31 30 29.6569 30 28V9L21 0H5C3.34315 0 2 1.34315 2 3V28C2 29.6569 3.34315 31 5 31Z" fill="#EEEDEB"/><path d="M21 6V0L30 9H24C22.3431 9 21 7.65685 21 6Z" fill="#C4C3C0"/><rect y="13" width="34.6314" height="14" rx="2" fill="#006DFF"/><path d="M2.91663 23.6991H5.74158C7.96155 23.6991 9.26892 22.3199 9.26892 19.9718V19.9615C9.26892 17.6185 7.95642 16.3009 5.74158 16.3009H2.91663V23.6991ZM4.46497 22.4174V17.5775H5.55701C6.91565 17.5775 7.68982 18.4235 7.68982 19.9667V19.9769C7.68982 21.5765 6.94128 22.4174 5.55701 22.4174H4.46497Z" fill="white"/><path d="M13.6063 23.8273C15.8058 23.8273 17.1747 22.3558 17.1747 20.0026V19.9923C17.1747 17.6442 15.8007 16.1727 13.6063 16.1727C11.4171 16.1727 10.038 17.639 10.038 19.9923V20.0026C10.038 22.3558 11.4069 23.8273 13.6063 23.8273ZM13.6063 22.5148C12.3912 22.5148 11.6171 21.5509 11.6171 20.0026V19.9923C11.6171 18.444 12.3964 17.4852 13.6063 17.4852C14.8214 17.4852 15.5956 18.4491 15.5956 19.9923V20.0026C15.5956 21.5355 14.8368 22.5148 13.6063 22.5148Z" fill="white"/><path d="M21.4659 23.8273C23.2553 23.8273 24.5524 22.7045 24.6959 21.1305L24.7011 21.0741H23.1937L23.1835 21.1254C22.9835 22.0021 22.358 22.5148 21.4659 22.5148C20.2816 22.5148 19.5228 21.5509 19.5228 19.9923V19.9872C19.5228 18.4388 20.2816 17.4852 21.4659 17.4852C22.3888 17.4852 22.9938 18.0184 23.1681 18.8336L23.1886 18.9208H24.6959L24.6908 18.8746C24.5472 17.3058 23.2604 16.1727 21.4659 16.1727C19.3075 16.1727 17.9437 17.6083 17.9437 19.9923V19.9974C17.9437 22.3815 19.3024 23.8273 21.4659 23.8273Z" fill="white"/><path d="M24.9574 23.6991H26.6288L28.2438 21.1049H28.295L29.9203 23.6991H31.684L29.2897 20.0026V19.9821L31.7147 16.3009H29.9869L28.4232 18.9669H28.3668L26.7929 16.3009H24.9728L27.3107 19.9564V19.9718L24.9574 23.6991Z" fill="white"/></symbol>
<symbol id="icon-file_types_dot" viewBox="0 0 24 24"><path d="M2 17H30V29C30 30.6569 28.6569 32 27 32H5C3.34315 32 2 30.6569 2 29V17Z" fill="#DAD9D7"/><path d="M5 31H27C28.6569 31 30 29.6569 30 28V9L21 0H5C3.34315 0 2 1.34315 2 3V28C2 29.6569 3.34315 31 5 31Z" fill="#EEEDEB"/><path d="M21 6V0L30 9H24C22.3431 9 21 7.65685 21 6Z" fill="#C4C3C0"/><rect y="13" width="26.1412" height="14" rx="2" fill="#006DFF"/><path d="M2.91663 23.6991H5.74158C7.96155 23.6991 9.26892 22.3199 9.26892 19.9718V19.9615C9.26892 17.6185 7.95642 16.3009 5.74158 16.3009H2.91663V23.6991ZM4.46497 22.4174V17.5775H5.55701C6.91565 17.5775 7.68982 18.4235 7.68982 19.9667V19.9769C7.68982 21.5765 6.94128 22.4174 5.55701 22.4174H4.46497Z" fill="white"/><path d="M13.6063 23.8273C15.8058 23.8273 17.1747 22.3558 17.1747 20.0026V19.9923C17.1747 17.6442 15.8007 16.1727 13.6063 16.1727C11.4171 16.1727 10.038 17.639 10.038 19.9923V20.0026C10.038 22.3558 11.4069 23.8273 13.6063 23.8273ZM13.6063 22.5148C12.3912 22.5148 11.6171 21.5509 11.6171 20.0026V19.9923C11.6171 18.444 12.3964 17.4852 13.6063 17.4852C14.8214 17.4852 15.5956 18.4491 15.5956 19.9923V20.0026C15.5956 21.5355 14.8368 22.5148 13.6063 22.5148Z" fill="white"/><path d="M19.5331 23.6991H21.0814V17.5775H23.2245V16.3009H17.3951V17.5775H19.5331V23.6991Z" fill="white"/></symbol>
<symbol id="icon-file_types_dotm" viewBox="0 0 24 24"><path d="M2 17H30V29C30 30.6569 28.6569 32 27 32H5C3.34315 32 2 30.6569 2 29V17Z" fill="#DAD9D7"/><path d="M5 31H27C28.6569 31 30 29.6569 30 28V9L21 0H5C3.34315 0 2 1.34315 2 3V28C2 29.6569 3.34315 31 5 31Z" fill="#EEEDEB"/><path d="M21 6V0L30 9H24C22.3431 9 21 7.65685 21 6Z" fill="#C4C3C0"/><rect y="13" width="34.8109" height="14" rx="2" fill="#006DFF"/><path d="M2.91663 23.6991H5.74158C7.96155 23.6991 9.26892 22.3199 9.26892 19.9718V19.9615C9.26892 17.6185 7.95642 16.3009 5.74158 16.3009H2.91663V23.6991ZM4.46497 22.4174V17.5775H5.55701C6.91565 17.5775 7.68982 18.4235 7.68982 19.9667V19.9769C7.68982 21.5765 6.94128 22.4174 5.55701 22.4174H4.46497Z" fill="white"/><path d="M13.6063 23.8273C15.8058 23.8273 17.1747 22.3558 17.1747 20.0026V19.9923C17.1747 17.6442 15.8007 16.1727 13.6063 16.1727C11.4171 16.1727 10.038 17.639 10.038 19.9923V20.0026C10.038 22.3558 11.4069 23.8273 13.6063 23.8273ZM13.6063 22.5148C12.3912 22.5148 11.6171 21.5509 11.6171 20.0026V19.9923C11.6171 18.444 12.3964 17.4852 13.6063 17.4852C14.8214 17.4852 15.5956 18.4491 15.5956 19.9923V20.0026C15.5956 21.5355 14.8368 22.5148 13.6063 22.5148Z" fill="white"/><path d="M19.5331 23.6991H21.0814V17.5775H23.2245V16.3009H17.3951V17.5775H19.5331V23.6991Z" fill="white"/><path d="M24.0807 23.6991H25.4598V18.6952H25.5009L27.5004 23.6991H28.4745L30.4689 18.6952H30.515V23.6991H31.8942V16.3009H30.1049L28.0028 21.6176H27.972L25.87 16.3009H24.0807V23.6991Z" fill="white"/></symbol>
<symbol id="icon-file_types_dotx" viewBox="0 0 24 24"><path d="M2 17H30V29C30 30.6569 28.6569 32 27 32H5C3.34315 32 2 30.6569 2 29V17Z" fill="#DAD9D7"/><path d="M5 31H27C28.6569 31 30 29.6569 30 28V9L21 0H5C3.34315 0 2 1.34315 2 3V28C2 29.6569 3.34315 31 5 31Z" fill="#EEEDEB"/><path d="M21 6V0L30 9H24C22.3431 9 21 7.65685 21 6Z" fill="#C4C3C0"/><rect y="13" width="33.3599" height="14" rx="2" fill="#006DFF"/><path d="M2.91663 23.6991H5.74158C7.96155 23.6991 9.26892 22.3199 9.26892 19.9718V19.9615C9.26892 17.6185 7.95642 16.3009 5.74158 16.3009H2.91663V23.6991ZM4.46497 22.4174V17.5775H5.55701C6.91565 17.5775 7.68982 18.4235 7.68982 19.9667V19.9769C7.68982 21.5765 6.94128 22.4174 5.55701 22.4174H4.46497Z" fill="white"/><path d="M13.6063 23.8273C15.8058 23.8273 17.1747 22.3558 17.1747 20.0026V19.9923C17.1747 17.6442 15.8007 16.1727 13.6063 16.1727C11.4171 16.1727 10.038 17.639 10.038 19.9923V20.0026C10.038 22.3558 11.4069 23.8273 13.6063 23.8273ZM13.6063 22.5148C12.3912 22.5148 11.6171 21.5509 11.6171 20.0026V19.9923C11.6171 18.444 12.3964 17.4852 13.6063 17.4852C14.8214 17.4852 15.5956 18.4491 15.5956 19.9923V20.0026C15.5956 21.5355 14.8368 22.5148 13.6063 22.5148Z" fill="white"/><path d="M19.5331 23.6991H21.0814V17.5775H23.2245V16.3009H17.3951V17.5775H19.5331V23.6991Z" fill="white"/><path d="M23.6859 23.6991H25.3573L26.9723 21.1049H27.0236L28.6488 23.6991H30.4125L28.0182 20.0026V19.9821L30.4432 16.3009H28.7155L27.1517 18.9669H27.0953L25.5214 16.3009H23.7013L26.0392 19.9564V19.9718L23.6859 23.6991Z" fill="white"/></symbol>
<symbol id="icon-file_types_eps" viewBox="0 0 24 24"><path d="M2 17H30V29C30 30.6569 28.6569 32 27 32H5C3.34315 32 2 30.6569 2 29V17Z" fill="#DAD9D7"/><path d="M5 31H27C28.6569 31 30 29.6569 30 28V9L21 0H5C3.34315 0 2 1.34315 2 3V28C2 29.6569 3.34315 31 5 31Z" fill="#EEEDEB"/><path d="M21 6V0L30 9H24C22.3431 9 21 7.65685 21 6Z" fill="#C4C3C0"/><rect y="13" width="24.0289" height="14" rx="2" fill="#8C40F2"/><path d="M2.91663 23.6991H7.81799V22.4225H4.46497V20.5614H7.6283V19.3514H4.46497V17.5775H7.81799V16.3009H2.91663V23.6991Z" fill="white"/><path d="M8.93567 23.6991H10.484V21.3663H11.9093C13.4679 21.3663 14.5087 20.3615 14.5087 18.8387V18.8285C14.5087 17.3058 13.4679 16.3009 11.9093 16.3009H8.93567V23.6991ZM11.5299 17.5262C12.4169 17.5262 12.9398 17.9928 12.9398 18.8336V18.8439C12.9398 19.6847 12.4169 20.1564 11.5299 20.1564H10.484V17.5262H11.5299Z" fill="white"/><path d="M18.1283 23.8273C19.9945 23.8273 21.1122 22.9249 21.1122 21.5048V21.4996C21.1122 20.3358 20.4149 19.7052 18.8666 19.3976L18.0822 19.2386C17.2311 19.0695 16.8517 18.7977 16.8517 18.3312V18.326C16.8517 17.798 17.3285 17.434 18.1232 17.4288C18.8871 17.4288 19.4203 17.7826 19.4972 18.3619L19.5023 18.4235H20.9635L20.9584 18.326C20.8866 17.0289 19.8356 16.1727 18.1232 16.1727C16.4825 16.1727 15.3033 17.0648 15.3033 18.4183V18.4235C15.3033 19.536 16.0416 20.2333 17.5028 20.5255L18.2821 20.6793C19.1998 20.869 19.5638 21.1202 19.5638 21.6227V21.6278C19.5638 22.1918 19.0255 22.566 18.1693 22.566C17.3234 22.566 16.7133 22.2072 16.6158 21.6329L16.6056 21.5765H15.1444L15.1495 21.6586C15.2367 23.0223 16.3698 23.8273 18.1283 23.8273Z" fill="white"/></symbol>
<symbol id="icon-file_types_folder" viewBox="0 0 24 24"><path fill-rule="evenodd" clip-rule="evenodd" d="M4 3C2.34315 3 1 4.34315 1 6V9V26C1 27.6569 2.34315 29 4 29H28C29.6569 29 31 27.6569 31 26V9C31 7.34315 29.6569 6 28 6H12.75L11.4 4.2C10.8334 3.44458 9.94427 3 9 3H4Z" fill="#80B6FF"/><rect x="1" y="8" width="30" height="21" rx="3" fill="#B2D3FF"/></symbol>
<symbol id="icon-file_types_generic" viewBox="0 0 24 24"><path d="M2 17H30V29C30 30.6569 28.6569 32 27 32H5C3.34315 32 2 30.6569 2 29V17Z" fill="#DAD9D7"/><path d="M5 31H27C28.6569 31 30 29.6569 30 28V9L21 0H5C3.34315 0 2 1.34315 2 3V28C2 29.6569 3.34315 31 5 31Z" fill="#EEEDEB"/><path d="M21 6V0L30 9H24C22.3431 9 21 7.65685 21 6Z" fill="#C4C3C0"/></symbol>
<symbol id="icon-file_types_gif" viewBox="0 0 24 24"><path d="M2 17H30V29C30 30.6569 28.6569 32 27 32H5C3.34315 32 2 30.6569 2 29V17Z" fill="#DAD9D7"/><path d="M5 31H27C28.6569 31 30 29.6569 30 28V9L21 0H5C3.34315 0 2 1.34315 2 3V28C2 29.6569 3.34315 31 5 31Z" fill="#EEEDEB"/><path d="M21 6V0L30 9H24C22.3431 9 21 7.65685 21 6Z" fill="#C4C3C0"/><rect y="13" width="21.327" height="14" rx="2" fill="#8C40F2"/><path d="M6.47986 23.8273C8.54089 23.8273 9.76111 22.6071 9.76111 20.5922V19.7411H6.64392V20.8947H8.25378L8.24866 21.0023C8.20764 21.9149 7.5155 22.5148 6.50549 22.5148C5.27502 22.5148 4.49573 21.5663 4.49573 19.9615V19.9564C4.49573 18.3876 5.22888 17.4852 6.4491 17.4852C7.28479 17.4852 7.87439 17.9005 8.12048 18.6183L8.14099 18.6696H9.69446L9.67908 18.5978C9.43298 17.2084 8.22302 16.1727 6.44397 16.1727C4.27527 16.1727 2.91663 17.6031 2.91663 19.9718V19.9769C2.91663 22.3866 4.27014 23.8273 6.47986 23.8273Z" fill="white"/><path d="M10.7865 23.6991H12.3348V16.3009H10.7865V23.6991Z" fill="white"/><path d="M13.5653 23.6991H15.1136V20.787H18.1232V19.5616H15.1136V17.5775H18.4103V16.3009H13.5653V23.6991Z" fill="white"/></symbol>
<symbol id="icon-file_types_jpg" viewBox="0 0 24 24"><path d="M2 17H30V29C30 30.6569 28.6569 32 27 32H5C3.34315 32 2 30.6569 2 29V17Z" fill="#DAD9D7"/><path d="M5 31H27C28.6569 31 30 29.6569 30 28V9L21 0H5C3.34315 0 2 1.34315 2 3V28C2 29.6569 3.34315 31 5 31Z" fill="#EEEDEB"/><path d="M21 6V0L30 9H24C22.3431 9 21 7.65685 21 6Z" fill="#C4C3C0"/><rect y="13" width="25.2594" height="14" rx="2" fill="#8C40F2"/><path d="M5.41345 23.8273C7.01819 23.8273 7.94617 22.9198 7.94617 21.3612V16.3009H6.39783V21.3458C6.39783 22.0944 6.04919 22.4891 5.39807 22.4891C4.78796 22.4891 4.44958 22.0892 4.42395 21.515L4.41882 21.4843H2.91663L2.92175 21.5304C2.95764 22.9198 3.88562 23.8273 5.41345 23.8273Z" fill="white"/><path d="M9.23816 23.6991H10.7865V21.3663H12.2118C13.7704 21.3663 14.8112 20.3615 14.8112 18.8387V18.8285C14.8112 17.3058 13.7704 16.3009 12.2118 16.3009H9.23816V23.6991ZM11.8324 17.5262C12.7194 17.5262 13.2423 17.9928 13.2423 18.8336V18.8439C13.2423 19.6847 12.7194 20.1564 11.8324 20.1564H10.7865V17.5262H11.8324Z" fill="white"/><path d="M19.0614 23.8273C21.1224 23.8273 22.3427 22.6071 22.3427 20.5922V19.7411H19.2255V20.8947H20.8353L20.8302 21.0023C20.7892 21.9149 20.097 22.5148 19.087 22.5148C17.8566 22.5148 17.0773 21.5663 17.0773 19.9615V19.9564C17.0773 18.3876 17.8104 17.4852 19.0306 17.4852C19.8663 17.4852 20.4559 17.9005 20.702 18.6183L20.7225 18.6696H22.276L22.2606 18.5978C22.0145 17.2084 20.8046 16.1727 19.0255 16.1727C16.8568 16.1727 15.4982 17.6031 15.4982 19.9718V19.9769C15.4982 22.3866 16.8517 23.8273 19.0614 23.8273Z" fill="white"/></symbol>
<symbol id="icon-file_types_pdf" viewBox="0 0 24 24"><path d="M2 17H30V29C30 30.6569 28.6569 32 27 32H5C3.34315 32 2 30.6569 2 29V17Z" fill="#DAD9D7"/><path d="M5 31H27C28.6569 31 30 29.6569 30 28V9L21 0H5C3.34315 0 2 1.34315 2 3V28C2 29.6569 3.34315 31 5 31Z" fill="#EEEDEB"/><path d="M21 6V0L30 9H24C22.3431 9 21 7.65685 21 6Z" fill="#C4C3C0"/><rect y="13" width="24.5211" height="14" rx="2" fill="#E62728"/><path d="M2.91663 23.6991H4.46497V21.3663H5.89026C7.44885 21.3663 8.48962 20.3615 8.48962 18.8387V18.8285C8.48962 17.3058 7.44885 16.3009 5.89026 16.3009H2.91663V23.6991ZM5.51086 17.5262C6.39783 17.5262 6.92078 17.9928 6.92078 18.8336V18.8439C6.92078 19.6847 6.39783 20.1564 5.51086 20.1564H4.46497V17.5262H5.51086Z" fill="white"/><path d="M9.40735 23.6991H12.2323C14.4523 23.6991 15.7596 22.3199 15.7596 19.9718V19.9615C15.7596 17.6185 14.4471 16.3009 12.2323 16.3009H9.40735V23.6991ZM10.9557 22.4174V17.5775H12.0477C13.4064 17.5775 14.1805 18.4235 14.1805 19.9667V19.9769C14.1805 21.5765 13.432 22.4174 12.0477 22.4174H10.9557Z" fill="white"/><path d="M16.7594 23.6991H18.3077V20.787H21.3173V19.5616H18.3077V17.5775H21.6044V16.3009H16.7594V23.6991Z" fill="white"/></symbol>
<symbol id="icon-file_types_png" viewBox="0 0 24 24"><path d="M2 17H30V29C30 30.6569 28.6569 32 27 32H5C3.34315 32 2 30.6569 2 29V17Z" fill="#DAD9D7"/><path d="M5 31H27C28.6569 31 30 29.6569 30 28V9L21 0H5C3.34315 0 2 1.34315 2 3V28C2 29.6569 3.34315 31 5 31Z" fill="#EEEDEB"/><path d="M21 6V0L30 9H24C22.3431 9 21 7.65685 21 6Z" fill="#C4C3C0"/><rect y="13" width="26.4437" height="14" rx="2" fill="#8C40F2"/><path d="M2.91663 23.6991H4.46497V21.3663H5.89026C7.44885 21.3663 8.48962 20.3615 8.48962 18.8387V18.8285C8.48962 17.3058 7.44885 16.3009 5.89026 16.3009H2.91663V23.6991ZM5.51086 17.5262C6.39783 17.5262 6.92078 17.9928 6.92078 18.8336V18.8439C6.92078 19.6847 6.39783 20.1564 5.51086 20.1564H4.46497V17.5262H5.51086Z" fill="white"/><path d="M9.40735 23.6991H10.9506V18.8541H10.9813L14.3344 23.6991H15.6776V16.3009H14.1344V21.11H14.1036L10.7609 16.3009H9.40735V23.6991Z" fill="white"/><path d="M20.2457 23.8273C22.3068 23.8273 23.527 22.6071 23.527 20.5922V19.7411H20.4098V20.8947H22.0197L22.0145 21.0023C21.9735 21.9149 21.2814 22.5148 20.2714 22.5148C19.0409 22.5148 18.2616 21.5663 18.2616 19.9615V19.9564C18.2616 18.3876 18.9948 17.4852 20.215 17.4852C21.0507 17.4852 21.6403 17.9005 21.8864 18.6183L21.9069 18.6696H23.4603L23.4449 18.5978C23.1989 17.2084 21.9889 16.1727 20.2098 16.1727C18.0411 16.1727 16.6825 17.6031 16.6825 19.9718V19.9769C16.6825 22.3866 18.036 23.8273 20.2457 23.8273Z" fill="white"/></symbol>
<symbol id="icon-file_types_raw" viewBox="0 0 24 24"><path d="M2 17H30V29C30 30.6569 28.6569 32 27 32H5C3.34315 32 2 30.6569 2 29V17Z" fill="#DAD9D7"/><path d="M5 31H27C28.6569 31 30 29.6569 30 28V9L21 0H5C3.34315 0 2 1.34315 2 3V28C2 29.6569 3.34315 31 5 31Z" fill="#EEEDEB"/><path d="M21 6V0L30 9H24C22.3431 9 21 7.65685 21 6Z" fill="#C4C3C0"/><rect y="13" width="28.4176" height="14" rx="2" fill="#8C40F2"/><path d="M2.91663 23.6991H4.46497V21.0177H5.70569L7.08484 23.6991H8.83826L7.27966 20.787C8.09998 20.464 8.6178 19.6539 8.6178 18.6798V18.6696C8.6178 17.1827 7.63342 16.3009 5.97229 16.3009H2.91663V23.6991ZM4.46497 19.8436V17.5109H5.78259C6.54651 17.5109 7.03357 17.962 7.03357 18.6696V18.6798C7.03357 19.4078 6.57214 19.8436 5.8031 19.8436H4.46497Z" fill="white"/><path d="M9.17151 23.6991H10.7968L11.3505 21.9047H13.9498L14.5035 23.6991H16.1339L13.5602 16.3009H11.7401L9.17151 23.6991ZM12.6373 17.7365H12.6681L13.5909 20.746H11.7094L12.6373 17.7365Z" fill="white"/><path d="M17.7592 23.6991H19.2716L20.6354 18.7413H20.6661L22.0248 23.6991H23.5372L25.5009 16.3009H23.8961L22.722 21.6022H22.6913L21.3275 16.3009H19.9689L18.6051 21.6022H18.5743L17.4054 16.3009H15.8007L17.7592 23.6991Z" fill="white"/></symbol>
<symbol id="icon-file_types_xls" viewBox="0 0 24 24"><path d="M2 17H30V29C30 30.6569 28.6569 32 27 32H5C3.34315 32 2 30.6569 2 29V17Z" fill="#DAD9D7"/><path d="M5 31H27C28.6569 31 30 29.6569 30 28V9L21 0H5C3.34315 0 2 1.34315 2 3V28C2 29.6569 3.34315 31 5 31Z" fill="#EEEDEB"/><path d="M21 6V0L30 9H24C22.3431 9 21 7.65685 21 6Z" fill="#C4C3C0"/><rect y="13" width="24.8133" height="14" rx="2" fill="#00AE49"/><path d="M2.91663 23.6991H4.58801L6.203 21.1049H6.25427L7.87952 23.6991H9.64319L7.2489 20.0026V19.9821L9.67395 16.3009H7.94617L6.38245 18.9669H6.32605L4.75208 16.3009H2.93201L5.2699 19.9564V19.9718L2.91663 23.6991Z" fill="white"/><path d="M10.5096 23.6991H15.2931V22.4225H12.058V16.3009H10.5096V23.6991Z" fill="white"/><path d="M18.9127 23.8273C20.7789 23.8273 21.8966 22.9249 21.8966 21.5048V21.4996C21.8966 20.3358 21.1993 19.7052 19.651 19.3976L18.8666 19.2386C18.0155 19.0695 17.6361 18.7977 17.6361 18.3312V18.326C17.6361 17.798 18.1129 17.434 18.9076 17.4288C19.6715 17.4288 20.2047 17.7826 20.2816 18.3619L20.2867 18.4235H21.7479L21.7428 18.326C21.671 17.0289 20.62 16.1727 18.9076 16.1727C17.267 16.1727 16.0878 17.0648 16.0878 18.4183V18.4235C16.0878 19.536 16.826 20.2333 18.2872 20.5255L19.0665 20.6793C19.9843 20.869 20.3483 21.1202 20.3483 21.6227V21.6278C20.3483 22.1918 19.8099 22.566 18.9537 22.566C18.1078 22.566 17.4977 22.2072 17.4003 21.6329L17.39 21.5765H15.9288L15.934 21.6586C16.0211 23.0223 17.1542 23.8273 18.9127 23.8273Z" fill="white"/></symbol>
<symbol id="icon-file_types_xlsb" viewBox="0 0 24 24"><path d="M2 17H30V29C30 30.6569 28.6569 32 27 32H5C3.34315 32 2 30.6569 2 29V17Z" fill="#DAD9D7"/><path d="M5 31H27C28.6569 31 30 29.6569 30 28V9L21 0H5C3.34315 0 2 1.34315 2 3V28C2 29.6569 3.34315 31 5 31Z" fill="#EEEDEB"/><path d="M21 6V0L30 9H24C22.3431 9 21 7.65685 21 6Z" fill="#C4C3C0"/><rect y="13" width="31.5963" height="14" rx="2" fill="#00AE49"/><path d="M2.91663 23.6991H4.58801L6.203 21.1049H6.25427L7.87952 23.6991H9.64319L7.2489 20.0026V19.9821L9.67395 16.3009H7.94617L6.38245 18.9669H6.32605L4.75208 16.3009H2.93201L5.2699 19.9564V19.9718L2.91663 23.6991Z" fill="white"/><path d="M10.5096 23.6991H15.2931V22.4225H12.058V16.3009H10.5096V23.6991Z" fill="white"/><path d="M18.9127 23.8273C20.7789 23.8273 21.8966 22.9249 21.8966 21.5048V21.4996C21.8966 20.3358 21.1993 19.7052 19.651 19.3976L18.8666 19.2386C18.0155 19.0695 17.6361 18.7977 17.6361 18.3312V18.326C17.6361 17.798 18.1129 17.434 18.9076 17.4288C19.6715 17.4288 20.2047 17.7826 20.2816 18.3619L20.2867 18.4235H21.7479L21.7428 18.326C21.671 17.0289 20.62 16.1727 18.9076 16.1727C17.267 16.1727 16.0878 17.0648 16.0878 18.4183V18.4235C16.0878 19.536 16.826 20.2333 18.2872 20.5255L19.0665 20.6793C19.9843 20.869 20.3483 21.1202 20.3483 21.6227V21.6278C20.3483 22.1918 19.8099 22.566 18.9537 22.566C18.1078 22.566 17.4977 22.2072 17.4003 21.6329L17.39 21.5765H15.9288L15.934 21.6586C16.0211 23.0223 17.1542 23.8273 18.9127 23.8273Z" fill="white"/><path d="M22.8451 23.6991H26.1212C27.7003 23.6991 28.6796 22.8839 28.6796 21.5817V21.5714C28.6796 20.5973 27.9362 19.8641 26.9056 19.7872V19.7565C27.7157 19.6488 28.3258 18.9618 28.3258 18.1569V18.1466C28.3258 17.0135 27.4542 16.3009 26.0648 16.3009H22.8451V23.6991ZM25.6649 17.4493C26.3827 17.4493 26.8031 17.7877 26.8031 18.3722V18.3824C26.8031 18.9977 26.3314 19.3617 25.506 19.3617H24.3934V17.4493H25.6649ZM25.6906 20.4127C26.6031 20.4127 27.1005 20.7819 27.1005 21.4689V21.4791C27.1005 22.1764 26.6134 22.5455 25.7264 22.5455H24.3934V20.4127H25.6906Z" fill="white"/></symbol>
<symbol id="icon-file_types_xlsm" viewBox="0 0 24 24"><path d="M2 17H30V29C30 30.6569 28.6569 32 27 32H5C3.34315 32 2 30.6569 2 29V17Z" fill="#DAD9D7"/><path d="M5 31H27C28.6569 31 30 29.6569 30 28V9L21 0H5C3.34315 0 2 1.34315 2 3V28C2 29.6569 3.34315 31 5 31Z" fill="#EEEDEB"/><path d="M21 6V0L30 9H24C22.3431 9 21 7.65685 21 6Z" fill="#C4C3C0"/><rect y="13" width="33.5753" height="14" rx="2" fill="#00AE49"/><path d="M2.91663 23.6991H4.58801L6.203 21.1049H6.25427L7.87952 23.6991H9.64319L7.2489 20.0026V19.9821L9.67395 16.3009H7.94617L6.38245 18.9669H6.32605L4.75208 16.3009H2.93201L5.2699 19.9564V19.9718L2.91663 23.6991Z" fill="white"/><path d="M10.5096 23.6991H15.2931V22.4225H12.058V16.3009H10.5096V23.6991Z" fill="white"/><path d="M18.9127 23.8273C20.7789 23.8273 21.8966 22.9249 21.8966 21.5048V21.4996C21.8966 20.3358 21.1993 19.7052 19.651 19.3976L18.8666 19.2386C18.0155 19.0695 17.6361 18.7977 17.6361 18.3312V18.326C17.6361 17.798 18.1129 17.434 18.9076 17.4288C19.6715 17.4288 20.2047 17.7826 20.2816 18.3619L20.2867 18.4235H21.7479L21.7428 18.326C21.671 17.0289 20.62 16.1727 18.9076 16.1727C17.267 16.1727 16.0878 17.0648 16.0878 18.4183V18.4235C16.0878 19.536 16.826 20.2333 18.2872 20.5255L19.0665 20.6793C19.9843 20.869 20.3483 21.1202 20.3483 21.6227V21.6278C20.3483 22.1918 19.8099 22.566 18.9537 22.566C18.1078 22.566 17.4977 22.2072 17.4003 21.6329L17.39 21.5765H15.9288L15.934 21.6586C16.0211 23.0223 17.1542 23.8273 18.9127 23.8273Z" fill="white"/><path d="M22.8451 23.6991H24.2242V18.6952H24.2653L26.2648 23.6991H27.2389L29.2333 18.6952H29.2794V23.6991H30.6586V16.3009H28.8693L26.7672 21.6176H26.7365L24.6344 16.3009H22.8451V23.6991Z" fill="white"/></symbol>
<symbol id="icon-file_types_xlsx" viewBox="0 0 24 24"><path d="M2 17H30V29C30 30.6569 28.6569 32 27 32H5C3.34315 32 2 30.6569 2 29V17Z" fill="#DAD9D7"/><path d="M5 31H27C28.6569 31 30 29.6569 30 28V9L21 0H5C3.34315 0 2 1.34315 2 3V28C2 29.6569 3.34315 31 5 31Z" fill="#EEEDEB"/><path d="M21 6V0L30 9H24C22.3431 9 21 7.65685 21 6Z" fill="#C4C3C0"/><rect y="13" width="31.9705" height="14" rx="2" fill="#00AE49"/><path d="M2.91663 23.6991H4.58801L6.203 21.1049H6.25427L7.87952 23.6991H9.64319L7.2489 20.0026V19.9821L9.67395 16.3009H7.94617L6.38245 18.9669H6.32605L4.75208 16.3009H2.93201L5.2699 19.9564V19.9718L2.91663 23.6991Z" fill="white"/><path d="M10.5096 23.6991H15.2931V22.4225H12.058V16.3009H10.5096V23.6991Z" fill="white"/><path d="M18.9127 23.8273C20.7789 23.8273 21.8966 22.9249 21.8966 21.5048V21.4996C21.8966 20.3358 21.1993 19.7052 19.651 19.3976L18.8666 19.2386C18.0155 19.0695 17.6361 18.7977 17.6361 18.3312V18.326C17.6361 17.798 18.1129 17.434 18.9076 17.4288C19.6715 17.4288 20.2047 17.7826 20.2816 18.3619L20.2867 18.4235H21.7479L21.7428 18.326C21.671 17.0289 20.62 16.1727 18.9076 16.1727C17.267 16.1727 16.0878 17.0648 16.0878 18.4183V18.4235C16.0878 19.536 16.826 20.2333 18.2872 20.5255L19.0665 20.6793C19.9843 20.869 20.3483 21.1202 20.3483 21.6227V21.6278C20.3483 22.1918 19.8099 22.566 18.9537 22.566C18.1078 22.566 17.4977 22.2072 17.4003 21.6329L17.39 21.5765H15.9288L15.934 21.6586C16.0211 23.0223 17.1542 23.8273 18.9127 23.8273Z" fill="white"/><path d="M22.2965 23.6991H23.9679L25.5829 21.1049H25.6342L27.2594 23.6991H29.0231L26.6288 20.0026V19.9821L29.0538 16.3009H27.326L25.7623 18.9669H25.7059L24.132 16.3009H22.3119L24.6498 19.9564V19.9718L22.2965 23.6991Z" fill="white"/></symbol>
<symbol id="icon-file_types_zip" viewBox="0 0 24 24"><path d="M2 17H30V29C30 30.6569 28.6569 32 27 32H5C3.34315 32 2 30.6569 2 29V17Z" fill="#DAD9D7"/><path d="M5 31H27C28.6569 31 30 29.6569 30 28V9L21 0H5C3.34315 0 2 1.34315 2 3V28C2 29.6569 3.34315 31 5 31Z" fill="#EEEDEB"/><path d="M21 6V0L30 9H24C22.3431 9 21 7.65685 21 6Z" fill="#C4C3C0"/><path fill-rule="evenodd" clip-rule="evenodd" d="M9 0H7V1H9V2H7V3H9V4H7V5H9V6H7V7H9V8H7V9H9V10H7V11H9V12H7V13H9V14H11V13H9V12H11V11H9V10H11V9H9V8H11V7H9V6H11V5H9V4H11V3H9V2H11V1H9V0Z" fill="#C4C3C0"/><rect y="13" width="20.9681" height="14" rx="2" fill="#6F6F67"/><path d="M2.91663 23.6991H8.62805V22.4225H4.77771V22.3917L8.52551 17.3058V16.3009H3.00378V17.5775H6.67981V17.6083L2.91663 22.6891V23.6991Z" fill="white"/><path d="M9.69958 23.6991H11.2479V16.3009H9.69958V23.6991Z" fill="white"/><path d="M12.4784 23.6991H14.0267V21.3663H15.452C17.0106 21.3663 18.0514 20.3615 18.0514 18.8387V18.8285C18.0514 17.3058 17.0106 16.3009 15.452 16.3009H12.4784V23.6991ZM15.0726 17.5262C15.9596 17.5262 16.4825 17.9928 16.4825 18.8336V18.8439C16.4825 19.6847 15.9596 20.1564 15.0726 20.1564H14.0267V17.5262H15.0726Z" fill="white"/></symbol>
<symbol id="icon-filter" viewBox="0 0 24 24"><path d="M2.51251 3.03748H20.8875V6.74998L14.325 14.175V21.6H9.07501V14.175L2.51251 6.74998V3.03748Z" fill="currentColor"/></symbol>
<symbol id="icon-flag" viewBox="0 0 24 24"><path d="M2.54999 3.03748V21.6H5.24999V14.175H10.65L13.35 16.65H21.45V5.51248H13.35L10.65 3.03748H2.54999Z" fill="currentColor"/></symbol>
<symbol id="icon-flash" viewBox="0 0 24 24"><path d="M13.35 10.3875L14.7 1.19995H12L3.90002 10.3875V13.0125H10.65L9.30002 22.2H12L20.1 13.0125L20.1 10.3875H13.35Z" fill="currentColor"/></symbol>
<symbol id="icon-flash_off" viewBox="0 0 24 24"><path d="M13.45 10.1875L14.8 1H12.1L8.82721 4.71219L5.7832 1.79999L4.24625 3.33694L19.7765 18.8672L21.3134 17.3302L18.6049 14.6217L20.2 12.8125L20.2 10.1875H13.45Z" fill="currentColor"/><path d="M4 10.1875L5.90848 8.02279L10.6982 12.8125H4V10.1875Z" fill="currentColor"/><path d="M9.4 22L10.7434 12.8577L15.748 17.8623L12.1 22H9.4Z" fill="currentColor"/></symbol>
<symbol id="icon-folder" viewBox="0 0 24 24"><path d="M1.79999 3.03748H9.22499L12.9375 6.74998H21.6V19.125H1.79999V3.03748Z" fill="currentColor"/></symbol>
<symbol id="icon-gift" viewBox="0 0 24 24"><path fill-rule="evenodd" clip-rule="evenodd" d="M11 4.34998H2V8.17498H11V4.34998ZM11 10.725H8.1875H3.2375V20.925H11V10.725ZM13 20.925V10.725H15.6125H20.5625V20.925H13ZM13 8.17498V4.34998H21.8V8.17498H13Z" fill="currentColor"/></symbol>
<symbol id="icon-heart" viewBox="0 0 24 24"><path d="M2.83092 12.0184L11.7 20.8875L20.569 12.0184C21.6133 10.9741 22.2 9.55777 22.2 8.08092V7.83115C22.2 4.89371 19.8187 2.51245 16.8813 2.51245C15.2655 2.51245 13.7374 3.24691 12.728 4.50859L11.7 5.7937L10.6719 4.50859C9.66252 3.24691 8.13439 2.51245 6.51865 2.51245C3.58121 2.51245 1.19995 4.89371 1.19995 7.83115V8.08092C1.19995 9.55777 1.78663 10.9741 2.83092 12.0184Z" fill="currentColor"/></symbol>
<symbol id="icon-heart_beat" viewBox="0 0 24 24"><path d="M20.8875 3.07495H2.51245V10.725H5.63878L7.60753 6.89995L10.5424 6.89995L14.325 14.249L16.1388 10.725H20.8875V3.07495Z" fill="currentColor"/><path d="M20.8875 13.275H17.7611L15.7924 17.0999L12.8575 17.1L9.07495 9.75094L7.26112 13.275H2.51245V20.925H20.8875V13.275Z" fill="currentColor"/></symbol>
<symbol id="icon-hide" viewBox="0 0 24 24"><path fill-rule="evenodd" clip-rule="evenodd" d="M22.2 21.6H18.375L15.6169 18.3053C14.5053 18.8382 13.2698 19.125 12 19.125C9.57639 19.125 7.27794 18.0802 5.72635 16.273L1.80005 11.7L5.72635 7.12707C5.81616 7.02246 5.90847 6.92041 6.00317 6.82097L1.80005 1.80005H5.62505L22.2 21.6ZM13.0717 15.2649L8.62453 9.95237C8.33768 10.4732 8.17505 11.0682 8.17505 11.7C8.17505 13.7504 9.88756 15.4125 12 15.4125C12.3721 15.4125 12.7317 15.361 13.0717 15.2649Z" fill="currentColor"/><path d="M22.2 11.7L19.9406 14.3317L11.5328 4.28801C11.6879 4.2794 11.8437 4.27505 12 4.27505C14.4237 4.27505 16.7222 5.31992 18.2738 7.12707L22.2 11.7Z" fill="currentColor"/></symbol>
<symbol id="icon-home" viewBox="0 0 24 24"><path d="M3.0376 9.07495V20.8875H9.2251V15.6375C9.2251 14.1877 10.3332 13.0125 11.7001 13.0125C13.067 13.0125 14.1751 14.1877 14.1751 15.6375V20.8875H20.3626V9.07495L11.7001 1.19995L3.0376 9.07495Z" fill="currentColor"/></symbol>
<symbol id="icon-i_circle" viewBox="0 0 24 24"><path fill-rule="evenodd" clip-rule="evenodd" d="M22 12C22 17.5228 17.5228 22 12 22C6.47715 22 2 17.5228 2 12C2 6.47715 6.47715 2 12 2C17.5228 2 22 6.47715 22 12ZM10.75 12H9.5V9.5H13.25V15.75H14.5V18.25H10.75V12ZM13.25 8.25V5.75H10.75V8.25H13.25Z" fill="currentColor"/></symbol>
<symbol id="icon-i_circle_outline" viewBox="0 0 24 24"><path fill-rule="evenodd" clip-rule="evenodd" d="M12 19.75C16.2802 19.75 19.75 16.2802 19.75 12C19.75 7.71979 16.2802 4.25 12 4.25C7.71979 4.25 4.25 7.71979 4.25 12C4.25 16.2802 7.71979 19.75 12 19.75ZM12 22C17.5228 22 22 17.5228 22 12C22 6.47715 17.5228 2 12 2C6.47715 2 2 6.47715 2 12C2 17.5228 6.47715 22 12 22Z" fill="currentColor"/><path d="M10.8125 12.1875H9.625V9.8125H13.1875V15.75H14.375V18.125H10.8125V12.1875Z" fill="currentColor"/><path d="M13.1875 8.625V6.25H10.8125V8.625H13.1875Z" fill="currentColor"/></symbol>
<symbol id="icon-image" viewBox="0 0 24 24"><path fill-rule="evenodd" clip-rule="evenodd" d="M2.51245 2.51245H20.8875V20.8875H2.51245V2.51245ZM9.07495 13.0125L11.7 15.6375L18.2625 9.07495V18.2625H5.13745V16.95L9.07495 13.0125ZM9.7312 10.3875C10.8185 10.3875 11.7 9.50601 11.7 8.4187C11.7 7.33139 10.8185 6.44995 9.7312 6.44995C8.64389 6.44995 7.76245 7.33139 7.76245 8.4187C7.76245 9.50601 8.64389 10.3875 9.7312 10.3875Z" fill="currentColor"/></symbol>
<symbol id="icon-integrate" viewBox="0 0 24 24"><path fill-rule="evenodd" clip-rule="evenodd" d="M15.75 3C18.6495 3 21 5.35051 21 8.25V13L18 13V8.25C18 7.00736 16.9926 6 15.75 6C14.5074 6 13.5 7.00736 13.5 8.25L13.5 15.75C13.5 18.6495 11.1495 21 8.25 21C5.3505 21 3 18.6495 3 15.75L3 11H6L6 15.75C6 16.9926 7.00736 18 8.25 18C9.49264 18 10.5 16.9926 10.5 15.75L10.5 8.25C10.5 5.35051 12.8505 3 15.75 3Z" fill="currentColor"/><path d="M7 4.00005L7 9.00005H2L2 4.00005L7 4.00005Z" fill="currentColor"/><path d="M22 15.0001V20.0001H17L17 15.0001L22 15.0001Z" fill="currentColor"/></symbol>
<symbol id="icon-launch_arrow" viewBox="0 0 24 24"><path d="M14.325 1.80005L13.0125 3.03755L16.0219 5.87501L9.45939 12.0625L11.3155 13.8126L17.878 7.62509L20.8875 10.4625L22.2 9.22505V1.80005H14.325Z" fill="currentColor"/><path d="M2.51245 4.27505H9.07495V6.75005H5.13745V17.8875H16.95V14.175H19.575V20.3625H2.51245V4.27505Z" fill="currentColor"/></symbol>
<symbol id="icon-lightbulb" viewBox="0 0 24 24"><path d="M15.5763 19.2849H8.46997V21.9999H15.5763V19.2849Z" fill="currentColor"/><path d="M14.8762 13.8534C15.116 13.013 15.5788 12.2415 16.2125 11.6039C17.2632 10.5467 17.9161 9.09804 17.9161 7.48742C17.9161 3.81727 14.56 0.93015 10.7486 1.72973C8.46744 2.20794 6.65036 4.09276 6.23339 6.38691C5.8585 8.4477 6.56111 10.3427 7.86684 11.6383C8.4993 12.2657 8.9647 13.0245 9.2159 13.8534H5.7514V16.5684H18.2974V13.8534H14.8762ZM13.2033 13.8534H10.8455V10.3006H13.2033V13.8534Z" fill="currentColor"/></symbol>
<symbol id="icon-link" viewBox="0 0 24 24"><path d="M10.4535 3.21534C11.7439 1.92491 13.4941 1.19995 15.319 1.19995C19.1193 1.19995 22.2 4.28066 22.2 8.08092C22.2 9.90586 21.4751 11.6561 20.1846 12.9465L17.4937 15.6375L15.6375 13.7813L18.3285 11.0903C19.1266 10.2922 19.575 9.20967 19.575 8.08092C19.575 5.73041 17.6695 3.82495 15.319 3.82495C14.1903 3.82495 13.1078 4.27335 12.3096 5.07149L9.61867 7.76245L7.76251 5.9063L10.4535 3.21534Z" fill="currentColor"/><path d="M11.0904 18.3284L13.7814 15.6375L15.6375 17.4936L12.9466 20.1846C11.6561 21.475 9.90592 22.2 8.08098 22.2C4.28073 22.2 1.20001 19.1192 1.20001 15.319C1.20001 13.494 1.92497 11.7438 3.2154 10.4534L5.90636 7.76245L7.76251 9.61861L5.07155 12.3096C4.27341 13.1077 3.82501 14.1902 3.82501 15.319C3.82501 17.6695 5.73047 19.575 8.08098 19.575C9.20973 19.575 10.2923 19.1266 11.0904 18.3284Z" fill="currentColor"/><path d="M8.69059 16.5655L16.5656 8.69053L14.7094 6.83437L6.83443 14.7094L8.69059 16.5655Z" fill="currentColor"/></symbol>
<symbol id="icon-location_marker" viewBox="0 0 24 24"><path fill-rule="evenodd" clip-rule="evenodd" d="M4.28418 9.41277V9.78062C4.28418 11.5766 4.92381 13.3191 6.09787 14.7216L12.176 21.982L18.2541 14.7216C19.4281 13.3191 20.0677 11.5766 20.0677 9.78062V9.41277C20.0677 5.24769 16.5345 1.87122 12.176 1.87122C7.81745 1.87122 4.28418 5.24769 4.28418 9.41277ZM12.176 11.9266C13.6288 11.9266 14.8066 10.8011 14.8066 9.41277C14.8066 8.02441 13.6288 6.89892 12.176 6.89892C10.7231 6.89892 9.54537 8.02441 9.54537 9.41277C9.54537 10.8011 10.7231 11.9266 12.176 11.9266Z" fill="currentColor"/></symbol>
<symbol id="icon-lock" viewBox="0 0 24 24"><path fill-rule="evenodd" clip-rule="evenodd" d="M6.44995 9.07495V6.44995C6.44995 3.55046 8.80046 1.19995 11.7 1.19995C14.5994 1.19995 16.95 3.55046 16.95 6.44995V9.07495H19.575V22.2H3.82495V9.07495H6.44995ZM9.07495 6.44995C9.07495 5.0002 10.2502 3.82495 11.7 3.82495C13.1497 3.82495 14.325 5.0002 14.325 6.44995V9.07495H9.07495V6.44995ZM10.3875 18.2625V13.0125H13.0125V18.2625H10.3875Z" fill="currentColor"/></symbol>
<symbol id="icon-lock_alt" viewBox="0 0 24 24"><path fill-rule="evenodd" clip-rule="evenodd" d="M12 3.5C10.1324 3.5 8.99998 4.96861 9 6.49998V8.49929L7 8.49997V6.50002C6.99996 4.03139 8.8676 1.5 12 1.5C15.1324 1.5 17 4.03141 17 6.5L17 8.49999L15 8.50001L15 6.5C15 4.96859 13.8676 3.5 12 3.5Z" fill="currentColor"/><path fill-rule="evenodd" clip-rule="evenodd" d="M18 10H6V19H18V10ZM4 8V21H20V8H4Z" fill="currentColor"/><path d="M11 12H13V17H11V12Z" fill="currentColor"/></symbol>
<symbol id="icon-lock_unlocked" viewBox="0 0 24 24"><path d="M17.6062 4.27505C16.5189 4.27505 15.6375 5.10612 15.6375 6.1313V9.22505H19.575V21.6H3.82495V9.22505H13.0125V6.1313C13.0125 3.73922 15.0691 1.80005 17.6062 1.80005C20.1433 1.80005 22.2 3.73922 22.2 6.1313V6.75005H19.575V6.1313C19.575 5.10612 18.6935 4.27505 17.6062 4.27505ZM14.325 14.175H9.07495V16.65H14.325V14.175Z" fill="currentColor"/></symbol>
<symbol id="icon-logout" viewBox="0 0 24 24"><path d="M3.07495 2.51245H13.275V7.76245H6.89995L6.89995 15.6375H13.275V20.8875H3.07495V2.51245Z" fill="currentColor"/><path d="M15.825 10.3875V6.44995H17.1L22.2 11.7L17.1 16.95H15.825V13.0125H9.44995V10.3875L15.825 10.3875Z" fill="currentColor"/></symbol>
<symbol id="icon-maximize" viewBox="0 0 24 24"><path d="M14.325 1.19995L13.0125 2.51245L16.0219 5.52187L12.0844 9.45937L13.9406 11.3155L17.8781 7.37803L20.8875 10.3875L22.2 9.07495L22.2 1.19995H14.325Z" fill="currentColor"/><path d="M1.20001 22.2H9.07501L10.3875 20.8875L7.37809 17.878L11.3156 13.9405L9.45943 12.0844L5.52193 16.0219L2.51251 13.0125L1.20001 14.325V22.2Z" fill="currentColor"/></symbol>
<symbol id="icon-megaphone" viewBox="0 0 24 24"><path d="M4 8H8V16H4V8Z" fill="currentColor"/><path d="M2 10C2 8.89543 2.89543 8 4 8H6C7.10457 8 8 8.89543 8 10V14C8 15.1046 7.10457 16 6 16H4C2.89543 16 2 15.1046 2 14V10Z" fill="currentColor"/><path d="M15 12C15 10.3431 16.3431 9 18 9H19C20.6569 9 22 10.3431 22 12C22 13.6569 20.6569 15 19 15H18C16.3431 15 15 13.6569 15 12Z" fill="currentColor"/><path d="M5 16H8V21H5V16Z" fill="currentColor"/><path d="M19 21V3H16L9 8V16L16 21H19Z" fill="currentColor"/></symbol>
<symbol id="icon-menu" viewBox="0 0 24 24"><path d="M2.5 5H21.5V7.5H2.5L2.5 5Z" fill="currentColor"/><path d="M2.5 10.5H21.5V13H2.5L2.5 10.5Z" fill="currentColor"/><path d="M2.5 16H21.5V18.5H2.5L2.5 16Z" fill="currentColor"/></symbol>
<symbol id="icon-menu_collapse" viewBox="0 0 24 24"><path d="M11.5 5H22V7.5H11.5L11.5 5Z" fill="currentColor"/><path d="M11.5 10.5H22V13H11.5L11.5 10.5Z" fill="currentColor"/><path d="M11.5 16H22V18.5H11.5L11.5 16Z" fill="currentColor"/><path fill-rule="evenodd" clip-rule="evenodd" d="M5.86599 12L9 8.90744L7.067 7L2 12L7.067 17L9 15.0926L5.86599 12Z" fill="currentColor"/></symbol>
<symbol id="icon-message" viewBox="0 0 24 24"><path fill-rule="evenodd" clip-rule="evenodd" d="M22.2 2.51245H1.80005V18.2625H8.17505L12 22.2L15.825 18.2625H22.2V2.51245ZM5.62505 9.07495H8.17505V11.7H5.62505V9.07495ZM13.275 9.07495H10.725V11.7H13.275V9.07495ZM18.375 9.07495H15.825V11.7H18.375V9.07495Z" fill="currentColor"/></symbol>
<symbol id="icon-minimize" viewBox="0 0 24 24"><path d="M22.4046 3.97646L18.3546 7.80146L21.45 10.7249L20.1 11.9999H12V4.3499L13.35 3.0749L16.4454 5.99834L20.4954 2.17334L22.4046 3.97646Z" fill="currentColor"/><path d="M7.55458 18.0015L10.65 20.9249L12 19.6499V11.9999H3.89999L2.54999 13.2749L5.6454 16.1983L1.5954 20.0233L3.50459 21.8265L7.55458 18.0015Z" fill="currentColor"/></symbol>
<symbol id="icon-minus" viewBox="0 0 24 24"><path d="M18 10.5L18 13.5L6 13.5L6 10.5L18 10.5Z" fill="currentColor"/></symbol>
<symbol id="icon-minus_small" viewBox="0 0 24 24"><path d="M18 10.5L18 13.5L6 13.5L6 10.5L18 10.5Z" fill="currentColor"/></symbol>
<symbol id="icon-more_horizontal" viewBox="0 0 24 24"><path d="M14.75 12C14.75 13.4083 13.5747 14.55 12.125 14.55C10.6753 14.55 9.5 13.4083 9.5 12C9.5 10.5916 10.6753 9.44995 12.125 9.44995C13.5747 9.44995 14.75 10.5916 14.75 12Z" fill="currentColor"/><path d="M7.125 12C7.125 13.4083 5.94975 14.55 4.5 14.55C3.05025 14.55 1.875 13.4083 1.875 12C1.875 10.5916 3.05025 9.44995 4.5 9.44995C5.94975 9.44995 7.125 10.5916 7.125 12Z" fill="currentColor"/><path d="M22.2 12C22.2 13.4083 21.0247 14.55 19.575 14.55C18.1252 14.55 16.95 13.4083 16.95 12C16.95 10.5916 18.1252 9.44995 19.575 9.44995C21.0247 9.44995 22.2 10.5916 22.2 12Z" fill="currentColor"/></symbol>
<symbol id="icon-note" viewBox="0 0 24 24"><path d="M20.8914 2.82544H3.62811V21.2396H12.2598V12.0325H20.8914V2.82544Z" fill="currentColor"/><path d="M20.8914 14.6631H14.7259V21.2396H15.959L20.8914 15.9784V14.6631Z" fill="currentColor"/></symbol>
<symbol id="icon-notification" viewBox="0 0 24 24"><path d="M12 1.19995C8.27213 1.19995 5.25005 4.13808 5.25005 7.76245V10.3875L2.55005 13.0125V15.6375H21.4501V13.0125L18.75 10.3875V7.76245C18.75 4.13808 15.728 1.19995 12 1.19995Z" fill="currentColor"/><path d="M7.95005 18.2625C7.95005 20.4371 9.7633 22.2 12 22.2C14.2368 22.2 16.0501 20.4371 16.0501 18.2625H7.95005Z" fill="currentColor"/></symbol>
<symbol id="icon-one_click" viewBox="0 0 24 24"><path d="M13.3749 1H10.625V5.8129H13.3749V1Z" fill="currentColor"/><path d="M1 10.6256V13.3758H5.81248V10.6256H1Z" fill="currentColor"/><path d="M18.1875 10.6256V13.3758H22.9999V10.6256H18.1875Z" fill="currentColor"/><path d="M6.85343 8.79939L8.79768 6.85359L5.19377 3.24941L3.24953 5.19383L6.85343 8.79939Z" fill="currentColor"/><path d="M17.1452 8.79939L20.7505 5.19383L18.8062 3.24941L15.201 6.85359L17.1452 8.79939Z" fill="currentColor"/><path d="M17.7543 16.1561L14.8545 14.7246C14.7252 14.6737 14.6029 14.6339 14.4874 14.6091C14.3719 14.583 14.2357 14.5706 14.0817 14.5706H13.386V10.3174C13.386 9.91724 13.2567 9.58857 12.9996 9.33143C12.7425 9.07428 12.4069 8.94506 11.9944 8.94506C11.5943 8.94506 11.2657 9.07428 11.0086 9.33143C10.7515 9.58857 10.6222 9.91862 10.6222 10.3174V17.8778L8.4759 17.3552C8.15415 17.2782 7.85988 17.2548 7.59588 17.2878C7.33188 17.3209 7.10915 17.4391 6.92903 17.6454L6.21401 18.4567L9.09735 21.4104L10.6401 23.0001H17.8162L18.0376 21.7295C18.0444 21.6992 18.0623 21.6772 18.0664 21.647L18.6467 18.1088C18.6976 17.6839 18.6536 17.303 18.512 16.9674C18.3704 16.6319 18.1187 16.361 17.7584 16.1547L17.7543 16.1561Z" fill="currentColor"/></symbol>
<symbol id="icon-pencil" viewBox="0 0 24 24"><path d="M12.0844 6.20455L2.51245 16.05V21.45H7.76245L17.3344 11.6045L12.0844 6.20455Z" fill="currentColor"/><path d="M13.9405 4.29536L19.1905 9.69536L21.1126 7.71833C21.8088 7.00224 22.2 6.03102 22.2 5.01833C22.2 2.9095 20.5379 1.19995 18.4876 1.19995C17.5031 1.19995 16.5588 1.60224 15.8626 2.31833L13.9405 4.29536Z" fill="currentColor"/></symbol>
<symbol id="icon-person" viewBox="0 0 24 24"><path d="M14.55 3.1687C14.55 4.25601 13.6938 5.13745 12.6375 5.13745C11.5813 5.13745 10.725 4.25601 10.725 3.1687C10.725 2.08139 11.5813 1.19995 12.6375 1.19995C13.6938 1.19995 14.55 2.08139 14.55 3.1687Z" fill="currentColor"/><path d="M5.40987 8.35381C5.72264 7.22689 6.72323 6.44995 7.86175 6.44995H11.6635L15.2456 8.29368L17.9015 7.20008L18.8485 9.63733L16.1926 10.7309C15.5164 11.0094 14.7567 10.9769 14.1052 10.6415L13.914 10.5431L13.2321 13.3506L14.344 14.0046C15.3359 14.5881 15.8298 15.7795 15.5527 16.9204L14.2705 22.2H11.642L13.0788 16.2837L10.9162 15.0116L9.17051 22.2H6.54203L9.72953 9.07495H7.86175L7.13318 11.7H4.48114L5.40987 8.35381Z" fill="currentColor"/></symbol>
<symbol id="icon-person_accessibile" viewBox="0 0 24 24"><path d="M18.2625 3.1687C18.2625 4.25601 17.3811 5.13745 16.2938 5.13745C15.2065 5.13745 14.325 4.25601 14.325 3.1687C14.325 2.08139 15.2065 1.19995 16.2938 1.19995C17.3811 1.19995 18.2625 2.08139 18.2625 3.1687Z" fill="currentColor"/><path fill-rule="evenodd" clip-rule="evenodd" d="M9.36497 5.3007C8.50434 5.12858 7.61462 5.39796 6.99401 6.01857L4.8657 8.14688L6.72186 10.003L8.85017 7.87473L10.7934 8.26337L8.5423 11.7266C5.893 11.9936 3.82501 14.2303 3.82501 16.95C3.82501 19.8494 6.17552 22.2 9.07501 22.2C11.9745 22.2 14.325 19.8494 14.325 16.95C14.325 16.4968 14.2676 16.057 14.1596 15.6375H16.9096L15.5971 20.8876H18.3029L19.4563 16.2742C19.8705 14.6174 18.6174 13.0125 16.9096 13.0125H12.9084L16.0565 8.51512L15.2387 6.47544L9.36497 5.3007ZM9.07501 19.575C10.5248 19.575 11.7 18.3997 11.7 16.95C11.7 15.5002 10.5248 14.325 9.07501 14.325C7.62526 14.325 6.45001 15.5002 6.45001 16.95C6.45001 18.3997 7.62526 19.575 9.07501 19.575Z" fill="currentColor"/></symbol>
<symbol id="icon-phone" viewBox="0 0 24 24"><path d="M3.0376 8.17495V3.07495H10.4626V8.17495L7.36885 11.3625L12.3188 16.4625L15.4126 13.275H20.3626V20.925H15.4126C8.57807 20.925 3.0376 15.2166 3.0376 8.17495Z" fill="currentColor"/></symbol>
<symbol id="icon-play" viewBox="0 0 24 24"><path d="M8.17499 20.8875L10.725 20.8875L19.65 11.6999L10.725 2.51245L8.17499 2.51245L8.17499 20.8875Z" fill="currentColor"/></symbol>
<symbol id="icon-plus" viewBox="0 0 24 24"><path fill-rule="evenodd" clip-rule="evenodd" d="M20.8875 3.0376H2.51245V20.3626H20.8875V3.0376ZM10.3875 6.7501H13.0125V10.4626H16.95V12.9376H13.0125V16.6501H10.3875V12.9376H6.44995V10.4626H10.3875V6.7501Z" fill="currentColor"/></symbol>
<symbol id="icon-plus_small" viewBox="0 0 24 24"><path d="M10.5 6H13.5V18H10.5V6Z" fill="currentColor"/><path d="M18 10.5V13.5L6 13.5L6 10.5L18 10.5Z" fill="currentColor"/></symbol>
<symbol id="icon-print" viewBox="0 0 24 24"><path d="M15.6375 1.80005H7.76251V6.75005H5.13751C2.96289 6.75005 1.20001 8.41219 1.20001 10.4625V16.65H5.13751V12.9375H18.2625V16.65H22.2V10.4625C22.2 8.41219 20.4371 6.75005 18.2625 6.75005H15.6375V1.80005Z" fill="currentColor"/><path d="M7.76251 15.4125H15.6375V20.3625H7.76251V15.4125Z" fill="currentColor"/></symbol>
<symbol id="icon-qr_code" viewBox="0 0 24 24"><path fill-rule="evenodd" clip-rule="evenodd" d="M11 2H2V11H11V2ZM8 5H5V8H8V5Z" fill="currentColor"/><path fill-rule="evenodd" clip-rule="evenodd" d="M22 13H13V22H22V13ZM19 16H16V19H19V16Z" fill="currentColor"/><path fill-rule="evenodd" clip-rule="evenodd" d="M11 13H2V22H11V13ZM8 16H5V19H8V16Z" fill="currentColor"/><rect x="16" y="5" width="3" height="3" fill="currentColor"/><rect x="13" y="2" width="3" height="3" fill="currentColor"/><rect x="13" y="8" width="3" height="3" fill="currentColor"/><rect x="19" y="2" width="3" height="3" fill="currentColor"/><rect x="19" y="8" width="3" height="3" fill="currentColor"/></symbol>
<symbol id="icon-question_circle" viewBox="0 0 24 24"><path fill-rule="evenodd" clip-rule="evenodd" d="M12 22C17.5228 22 22 17.5228 22 12C22 6.47715 17.5228 2 12 2C6.47715 2 2 6.47715 2 12C2 17.5228 6.47715 22 12 22ZM12 8.25C10.9645 8.25 10.125 9.08947 10.125 10.125V10.75H7.625V10.125C7.625 7.70875 9.58375 5.75 12 5.75C14.4162 5.75 16.375 7.70875 16.375 10.125C16.375 12.5412 14.4162 14.5 12 14.5H10.75V12H12C13.0355 12 13.875 11.1605 13.875 10.125C13.875 9.08947 13.0355 8.25 12 8.25ZM13.25 15.75V18.25H10.75V15.75H13.25Z" fill="currentColor"/></symbol>
<symbol id="icon-question_circle_outline" viewBox="0 0 24 24"><path fill-rule="evenodd" clip-rule="evenodd" d="M12 19.75C16.2802 19.75 19.75 16.2802 19.75 12C19.75 7.71979 16.2802 4.25 12 4.25C7.71979 4.25 4.25 7.71979 4.25 12C4.25 16.2802 7.71979 19.75 12 19.75ZM12 22C17.5228 22 22 17.5228 22 12C22 6.47715 17.5228 2 12 2C6.47715 2 2 6.47715 2 12C2 17.5228 6.47715 22 12 22Z" fill="currentColor"/><path d="M12 8.47794C11.0532 8.47794 10.2857 9.26803 10.2857 10.2426V10.8309H8V10.2426C8 7.96853 9.79086 6.125 12 6.125C14.2091 6.125 16 7.96853 16 10.2426C16 12.5168 14.2091 14.3603 12 14.3603H10.8571V12.0074H12C12.9468 12.0074 13.7143 11.2173 13.7143 10.2426C13.7143 9.26803 12.9468 8.47794 12 8.47794Z" fill="currentColor"/><path d="M13.1429 15.5368V17.8897H10.8571V15.5368H13.1429Z" fill="currentColor"/></symbol>
<symbol id="icon-radar" viewBox="0 0 24 24"><path d="M14.3131 11.4286C14.3564 11.6109 14.3875 11.7951 14.3875 12C14.3875 13.3125 13.325 14.3875 12 14.3875C10.675 14.3875 9.61253 13.325 9.61253 12C9.61253 10.675 10.675 9.61253 12 9.61253C12.2125 9.61253 12.425 9.65 12.625 9.7L14.55 7.77503C13.8 7.32503 12.9375 7.05001 12 7.05001C9.2625 7.05001 7.05005 9.2625 7.05005 12C7.05005 14.7375 9.2625 16.95 12 16.95C14.7375 16.95 16.95 14.7375 16.95 12C16.95 11.0799 16.6851 10.232 16.2498 9.49184L14.3131 11.4286Z" fill="currentColor"/><path d="M18.2031 7.5386C19.1111 8.79404 19.6501 10.3296 19.6501 12C19.6501 16.225 16.225 19.65 12 19.65C7.775 19.65 4.35001 16.225 4.35001 12C4.35001 7.775 7.775 4.35001 12 4.35001C13.6875 4.35001 15.2375 4.90004 16.5 5.82504L18.175 4.13237L18.1961 4.15145L18.1975 4.15009C18.19 4.14417 18.1825 4.13827 18.175 4.13237C16.475 2.79652 14.331 2 12 2C6.475 2 2 6.475 2 12C2 17.525 6.475 22 12 22C17.525 22 22 17.525 22 12C22 9.6816 21.212 7.54808 19.8892 5.85251L18.2031 7.5386Z" fill="currentColor"/></symbol>
<symbol id="icon-refresh" viewBox="0 0 24 24"><path d="M9.44999 10.4625L10.725 9.22505L7.80155 6.38759L8.54843 5.66268C9.46384 4.7742 10.7054 4.27505 12 4.27505C13.2946 4.27505 14.5361 4.7742 15.4515 5.66268L15.5609 5.76884C16.5464 6.7253 17.1 8.02254 17.1 9.37518L17.1 10.4625L19.65 10.4626V9.37518C19.65 7.36613 18.8277 5.43937 17.364 4.01875L17.2547 3.91259C15.861 2.55995 13.9709 1.80005 12 1.80005C10.0291 1.80005 8.13893 2.55995 6.74531 3.91259L5.99843 4.6375L3.07499 1.80005L1.79999 3.03755V10.4625H9.44999Z" fill="currentColor"/><path d="M15.4515 17.7374C14.5361 18.6259 13.2946 19.125 12 19.125C10.7054 19.125 9.46384 18.6259 8.54843 17.7374L8.43905 17.6313C7.45361 16.6748 6.89999 15.3776 6.89999 14.0249L6.89999 12.9375L4.34999 12.9375V14.0249C4.34999 16.034 5.17227 17.9607 6.63593 19.3813L6.74531 19.4875C8.13893 20.8401 10.0291 21.6 12 21.6C13.9709 21.6 15.861 20.8401 17.2547 19.4875L18.0015 18.7626L20.925 21.6L22.2 20.3625L22.2 12.9375L14.55 12.9375L13.275 14.175L16.1984 17.0125L15.4515 17.7374Z" fill="currentColor"/></symbol>
<symbol id="icon-refund" viewBox="0 0 24 24"><path fill-rule="evenodd" clip-rule="evenodd" d="M14.6107 4.5L16.325 4.50495L21.4827 9.66267L16.3547 14.7907L14.6404 14.7857L14.629 10.855L14.6287 10.75H6.25C5.83579 10.75 5.5 11.0858 5.5 11.5V16.5C5.5 16.9142 5.83579 17.25 6.25 17.25H17.25V19.75H6.25C4.45507 19.75 3 18.2949 3 16.5V11.5C3 9.70507 4.45507 8.25 6.25 8.25H14.6215L14.6107 4.5Z" fill="currentColor"/></symbol>
<symbol id="icon-return" viewBox="0 0 24 24"><path fill-rule="evenodd" clip-rule="evenodd" d="M9.872 4.5L8.15771 4.50495L3 9.66267L8.128 14.7907L9.84229 14.7857L9.85363 10.855L9.85394 10.75H18.2327C18.6469 10.75 18.9827 11.0858 18.9827 11.5V16.5C18.9827 16.9142 18.6469 17.25 18.2327 17.25H12V19.75H18.2327C20.0276 19.75 21.4827 18.2949 21.4827 16.5V11.5C21.4827 9.70507 20.0276 8.25 18.2327 8.25H9.86117L9.872 4.5Z" fill="currentColor"/></symbol>
<symbol id="icon-rotate" viewBox="0 0 24 24"><path d="M14.55 12H13.275V7.9453L8.37558 6.9654C8.15826 6.92194 7.93717 6.90005 7.71555 6.90005C5.85683 6.90005 4.35005 8.40683 4.35005 10.2655V13.275H1.80005V10.2655C1.80005 6.99851 4.44851 4.35005 7.71555 4.35005C8.1051 4.35005 8.49369 4.38853 8.87567 4.46492L13.275 5.3448V1.80005H14.55L19.65 6.90005L14.55 12Z" fill="currentColor"/><path d="M22.2 10.725V13.7345C22.2 17.0016 19.5516 19.65 16.2845 19.65C15.895 19.65 15.5064 19.6116 15.1244 19.5352L10.725 18.6553V22.2H9.45005L4.35005 17.1L9.45005 12H10.725V16.0548L15.6245 17.0347C15.8418 17.0782 16.0629 17.1 16.2845 17.1C18.1433 17.1 19.65 15.5933 19.65 13.7345V10.725H22.2Z" fill="currentColor"/></symbol>
<symbol id="icon-save" viewBox="0 0 24 24"><path d="M15.4125 3.03748H3.03748V20.3625L6.74998 20.3625L6.74998 12.9375L16.65 12.9375L16.65 20.3625H20.3625V7.98748L15.4125 3.03748Z" fill="currentColor"/><path d="M14.175 20.3625V15.4125H9.22498L9.22498 20.3625H14.175Z" fill="currentColor"/></symbol>
<symbol id="icon-search" viewBox="0 0 24 24"><path fill-rule="evenodd" clip-rule="evenodd" d="M10.8869 18.7739C12.6585 18.7739 13.9909 18.4925 15.3075 17.5064L18.8011 21L21 18.8011L17.5064 15.3075C18.4925 13.9909 18.7739 12.6585 18.7739 10.8869C18.7739 6.5311 15.2428 3 10.8869 3C6.5311 3 3 6.5311 3 10.8869C3 15.2428 6.5311 18.7739 10.8869 18.7739ZM10.9006 15.6409C13.5186 15.6409 15.6409 13.5186 15.6409 10.9006C15.6409 8.28254 13.5186 6.16022 10.9006 6.16022C8.28255 6.16022 6.16023 8.28254 6.16023 10.9006C6.16023 13.5186 8.28255 15.6409 10.9006 15.6409Z" fill="currentColor"/></symbol>
<symbol id="icon-semantic_alert" viewBox="0 0 24 24"><g clip-path="url(#clip0_1_5218)"><path d="M12 1C18.0751 1 23 5.92487 23 12C23 18.0751 18.0751 23 12 23C5.92487 23 1 18.0751 1 12C1 5.92487 5.92487 1 12 1ZM11.5723 16.6982H12.0859V16.2676H11.5732L11.5723 16.6982ZM11.5742 11.8428H12.085V7.76172H11.5742V11.8428Z" fill="#9A6F00" stroke="white" stroke-width="2"/></g><defs><clipPath id="clip0_1_5218"><rect width="24" height="24" fill="white"/></clipPath></defs></symbol>
<symbol id="icon-semantic_error" viewBox="0 0 24 24"><path fill-rule="evenodd" clip-rule="evenodd" d="M12 22C17.5228 22 22 17.5228 22 12C22 6.47715 17.5228 2 12 2C6.47715 2 2 6.47715 2 12C2 17.5228 6.47715 22 12 22ZM10.75 13.25V5.75H13.25V13.25H10.75ZM10.75 18.25V15.75H13.25V18.25H10.75Z" fill="#E62728"/></symbol>
<symbol id="icon-semantic_info" viewBox="0 0 24 24"><path fill-rule="evenodd" clip-rule="evenodd" d="M22 12C22 17.5228 17.5228 22 12 22C6.47715 22 2 17.5228 2 12C2 6.47715 6.47715 2 12 2C17.5228 2 22 6.47715 22 12ZM10.75 12H9.5V9.5H13.25V15.75H14.5V18.25H10.75V12ZM13.25 8.25V5.75H10.75V8.25H13.25Z" fill="#8C40F2"/></symbol>
<symbol id="icon-semantic_success" viewBox="0 0 24 24"><path fill-rule="evenodd" clip-rule="evenodd" d="M12 22C17.5228 22 22 17.5228 22 12C22 6.47715 17.5228 2 12 2C6.47715 2 2 6.47715 2 12C2 17.5228 6.47715 22 12 22ZM17.8839 9.13388L16.1161 7.36612L10.125 13.3572L7.88388 11.1161L6.11612 12.8839L10.125 16.8928L17.8839 9.13388Z" fill="#00AE49"/></symbol>
<symbol id="icon-semantic_warning" viewBox="0 0 24 24"><path fill-rule="evenodd" clip-rule="evenodd" d="M22.2 20.925H1.19995V17.1L10.3875 1.80005H13.0125L22.2 17.1V20.925ZM10.3875 6.90005H13.0125V13.275H10.3875V6.90005ZM10.3875 15.825H13.0125V18.375H10.3875V15.825Z" fill="#9A6F00"/></symbol>
<symbol id="icon-send" viewBox="0 0 24 24"><path d="M3.90002 3.03748H7.95002L22.8 10.4625V12.9375L7.95002 20.3625H3.90002L5.25002 12.9375H12V10.4625H5.25002L3.90002 3.03748Z" fill="currentColor"/></symbol>
<symbol id="icon-setting" viewBox="0 0 24 24"><path fill-rule="evenodd" clip-rule="evenodd" d="M12.9375 1.80005H10.4625L9.78122 4.52537C9.14448 4.69523 8.54143 4.94759 7.9842 5.27032L5.57474 3.82464L3.82466 5.57473L5.27033 7.98419C4.9476 8.54141 4.69523 9.14448 4.52537 9.78122L1.80005 10.4625V12.9375L4.52537 13.6189C4.69523 14.2556 4.9476 14.8587 5.27033 15.4159L3.82466 17.8254L5.57475 19.5754L7.9842 18.1298C8.54142 18.4525 9.14448 18.7049 9.78122 18.8747L10.4625 21.6H12.9375L13.6189 18.8747C14.2556 18.7049 14.8587 18.4525 15.4159 18.1298L17.8254 19.5754L19.5755 17.8254L18.1298 15.4159C18.4525 14.8587 18.7049 14.2556 18.8747 13.6189L21.6 12.9375V10.4625L18.8747 9.78122C18.7049 9.14448 18.4525 8.54143 18.1298 7.9842L19.5755 5.57473L17.8254 3.82464L15.4159 5.27032C14.8587 4.9476 14.2556 4.69523 13.6189 4.52537L12.9375 1.80005ZM11.7 14.175C13.067 14.175 14.175 13.067 14.175 11.7C14.175 10.3331 13.067 9.22505 11.7 9.22505C10.3331 9.22505 9.22505 10.3331 9.22505 11.7C9.22505 13.067 10.3331 14.175 11.7 14.175Z" fill="currentColor"/></symbol>
<symbol id="icon-share" viewBox="0 0 24 24"><path d="M15.825 9.22505C17.9375 9.22505 19.65 7.56291 19.65 5.51255C19.65 3.46219 17.9375 1.80005 15.825 1.80005C13.7126 1.80005 12 3.46219 12 5.51255C12 5.78938 12.0313 6.05914 12.0905 6.31869L8.00752 8.79548C7.35394 8.28979 6.52586 7.98755 5.62505 7.98755C3.51256 7.98755 1.80005 9.64969 1.80005 11.7C1.80005 13.7504 3.51256 15.4125 5.62505 15.4125C6.52586 15.4125 7.35394 15.1103 8.00752 14.6046L12.0905 17.0814C12.0313 17.341 12 17.6107 12 17.8875C12 19.9379 13.7126 21.6 15.825 21.6C17.9375 21.6 19.65 19.9379 19.65 17.8875C19.65 15.8372 17.9375 14.175 15.825 14.175C14.9242 14.175 14.0962 14.4773 13.4426 14.983L9.35962 12.5062C9.41883 12.2466 9.45005 11.9769 9.45005 11.7C9.45005 11.4232 9.41883 11.1535 9.35962 10.8939L13.4426 8.41712C14.0962 8.92281 14.9242 9.22505 15.825 9.22505Z" fill="currentColor"/></symbol>
<symbol id="icon-share_1-5183" viewBox="0 0 24 24"><path d="M6.89997 7.98755H10.725L10.725 15.4125H13.275L13.275 7.98755L17.1 7.98755V6.75005L12 1.80005L6.89997 6.75005V7.98755Z" fill="currentColor"/><path d="M4.34998 21.6L19.65 21.6V11.7H17.1V19.125H6.89998L6.89998 11.7H4.34998V21.6Z" fill="currentColor"/></symbol>
<symbol id="icon-shopping_bag" viewBox="0 0 24 24"><path d="M17.8217 7.39492H15.2503C15.2503 5.60248 13.7922 4.14563 11.9999 4.14563C10.2077 4.14563 8.75094 5.60377 8.75094 7.39492H6.17951C6.17951 4.1855 8.79081 1.57397 11.9999 1.57397C15.2091 1.57397 17.8217 4.1855 17.8217 7.39492Z" fill="currentColor"/><path d="M20.3212 9.96759H3.67888L3 22.0001H21L20.3212 9.96759ZM7.46402 15.2099C6.69131 15.2099 6.06515 14.5837 6.06515 13.8109C6.06515 13.0381 6.69131 12.4119 7.46402 12.4119C8.23673 12.4119 8.86285 13.0381 8.86285 13.8109C8.86285 14.5837 8.23673 15.2099 7.46402 15.2099ZM16.536 15.2099C15.7633 15.2099 15.1371 14.5837 15.1371 13.8109C15.1371 13.0381 15.7633 12.4119 16.536 12.4119C17.3087 12.4119 17.9349 13.0381 17.9349 13.8109C17.9349 14.5837 17.3087 15.2099 16.536 15.2099Z" fill="currentColor"/></symbol>
<symbol id="icon-shopping_cart" viewBox="0 0 24 24"><path d="M1.80005 3.07495V5.62495H4.46423L5.4921 11.9791L4.29908 18.1249C4.28262 18.2097 4.27471 18.2952 4.27505 18.3802C4.27679 18.8149 4.27505 19.2047 4.27505 19.65C4.27505 21.0583 5.38314 22.2 6.75005 22.2C8.11695 22.2 9.22505 21.0583 9.22505 19.65H14.175C14.175 21.0583 15.2831 22.2 16.65 22.2C18.017 22.2 19.125 21.0583 19.125 19.65C19.125 18.2416 18.017 17.1 16.65 17.1H7.02206L7.51706 14.55H20.3625V3.07495H1.80005Z" fill="currentColor"/></symbol>
<symbol id="icon-show" viewBox="0 0 24 24"><path fill-rule="evenodd" clip-rule="evenodd" d="M1.19995 11.7L5.24173 7.12704C6.83895 5.3199 9.205 4.27502 11.7 4.27502C14.1949 4.27502 16.561 5.3199 18.1582 7.12705L22.2 11.7L18.1582 16.273C16.561 18.0802 14.1949 19.125 11.7 19.125C9.205 19.125 6.83895 18.0802 5.24173 16.273L1.19995 11.7ZM11.7 15.4125C13.8746 15.4125 15.6375 13.7504 15.6375 11.7C15.6375 9.64967 13.8746 7.98752 11.7 7.98752C9.52533 7.98752 7.76245 9.64967 7.76245 11.7C7.76245 13.7504 9.52533 15.4125 11.7 15.4125Z" fill="currentColor"/></symbol>
<symbol id="icon-smartphone" viewBox="0 0 24 24"><path fill-rule="evenodd" clip-rule="evenodd" d="M4 1.5H20V22H4V1.5ZM7 4.5H17V16H7V4.5ZM13 18H11V20H13V18Z" fill="currentColor"/></symbol>
<symbol id="icon-sort_ascending" viewBox="0 0 24 24"><path d="M6.58434 6.25599L6.58434 8.11215L10.8403 8.11215L10.8403 21.9931L13.4653 21.9931L13.4653 8.11215L17.7213 8.11215L17.7213 6.25599L12.1528 0.687528L6.58434 6.25599Z" fill="currentColor"/></symbol>
<symbol id="icon-sort_descending" viewBox="0 0 24 24"><path d="M17.7212 17.7372L17.7212 15.881L13.4652 15.881L13.4652 2.00004L10.8402 2.00004L10.8402 15.881L6.58427 15.881V17.7372L12.1527 23.3056L17.7212 17.7372Z" fill="currentColor"/></symbol>
<symbol id="icon-split_arrows" viewBox="0 0 24 24"><path d="M2 6.04999H14.9331V2H16.6967L22 7.29999L16.6967 12.6H14.9331V8.54999H9.10444C9.74233 9.28749 10.2552 10.1875 10.5804 11.2125C10.7931 11.9125 10.8806 12.6375 10.8806 13.3625V14.9125H14.9456V16.6875L9.62982 22L4.31399 16.6875V14.9125H8.37904V13.325C8.37904 12.05 7.87873 10.8375 6.97817 9.93747C5.67735 8.63747 3.7386 8.56248 2.01252 8.53748V6.0625L2 6.04999Z" fill="currentColor"/></symbol>
<symbol id="icon-star" viewBox="0 0 24 24"><path d="M10.65 1.80005H13.35L15.3576 7.46385L21.8542 7.46385L22.6886 9.81772L17.4327 13.3181L19.4403 18.9819L17.2559 20.4367L12 16.9363L6.74414 20.4367L4.55979 18.9819L6.56735 13.3182L1.3114 9.81772L2.14575 7.46386L8.64244 7.46386L10.65 1.80005Z" fill="currentColor"/></symbol>
<symbol id="icon-support" viewBox="0 0 24 24"><path d="M2.5 2.5H14.375V7.25031H7.25001V14.3758H2.5V2.5Z" fill="currentColor"/><path d="M9.625 9.61594V19.1534H17.4969L19.8434 21.5H21.5V9.61475H9.625V9.61594ZM16.2061 17.714H14.9201V16.4279H16.2061V17.714ZM15.5625 15.5384H14.9189V14.2522H15.5625C16.0945 14.2522 16.5268 13.82 16.5268 13.2879C16.5268 12.7559 16.0945 12.3236 15.5625 12.3236C15.0305 12.3236 14.5982 12.7559 14.5982 13.2879V13.6098H13.3122V13.2879C13.3122 12.0446 14.3204 11.0375 15.5625 11.0375C16.8046 11.0375 17.8128 12.0457 17.8128 13.2879C17.8128 14.5302 16.8046 15.5384 15.5625 15.5384Z" fill="currentColor"/></symbol>
<symbol id="icon-tag" viewBox="0 0 24 24"><path fill-rule="evenodd" clip-rule="evenodd" d="M21.6 11.7L11.7 1.80005H1.80005V11.7L11.7 21.6L21.6 11.7ZM7.3688 9.22505C8.39398 9.22505 9.22505 8.39398 9.22505 7.3688C9.22505 6.34362 8.39398 5.51255 7.3688 5.51255C6.34362 5.51255 5.51255 6.34362 5.51255 7.3688C5.51255 8.39398 6.34362 9.22505 7.3688 9.22505Z" fill="currentColor"/></symbol>
<symbol id="icon-thumbs_down" viewBox="0 0 24 24"><path d="M10.75 22L8.25 15.5714V4H19.5L22 11.7143V15.5714H14.5V19.4286C14.5 20.8487 13.3807 22 12 22H10.75Z" fill="currentColor"/><path d="M5.75 15.5714H2V4H5.75V15.5714Z" fill="currentColor"/></symbol>
<symbol id="icon-thumbs_up" viewBox="0 0 24 24"><path d="M10.75 4L8.25 10.0714V21H19.5L22 13.7143V10.0714H14.5V6.42857C14.5 5.08731 13.3807 4 12 4H10.75Z" fill="currentColor"/><path d="M5.75 10.0714H2V21H5.75V10.0714Z" fill="currentColor"/></symbol>
<symbol id="icon-thumbtack" viewBox="0 0 24 24"><path d="M14.325 5.24995L13.0125 3.89995L15.6375 1.19995L22.2 7.94995L19.575 10.65L18.2625 9.29995L15.6375 12L17.3344 13.7454C17.9287 14.3566 18.2625 15.1856 18.2625 16.05C18.2625 16.9143 17.9287 17.7433 17.3344 18.3545L15.6375 20.1L3.82501 7.94995L5.52193 6.20455C6.11617 5.59333 6.92213 5.24995 7.76251 5.24995C8.60289 5.24995 9.40885 5.59333 10.0031 6.20454L11.7 7.94995L14.325 5.24995Z" fill="currentColor"/><path d="M1.20001 21.45L6.21571 14.2273L9.5345 17.6409L2.51251 22.8L1.20001 21.45Z" fill="currentColor"/></symbol>
<symbol id="icon-toggles" viewBox="0 0 24 24"><path d="M11.8502 7.16003C11.8302 7.07003 11.8002 6.98005 11.7702 6.89005C11.3702 5.71005 10.4502 4.78004 9.26019 4.38004C9.16019 4.34004 9.0602 4.31003 8.9502 4.28003C8.8602 4.26003 8.77024 4.24003 8.68024 4.22003C8.46024 4.18003 8.23018 4.15002 8.00018 4.15002C5.79018 4.15002 4.00018 5.94002 4.00018 8.15002C4.00018 8.38002 4.03019 8.61002 4.07019 8.83002C4.09019 8.92002 4.11019 9.01004 4.13019 9.10004C4.16019 9.21004 4.19022 9.31003 4.23022 9.41003C4.63022 10.6 5.56023 11.52 6.74023 11.92C6.84023 11.96 6.94023 11.99 7.05023 12.02C7.14023 12.04 7.2302 12.06 7.3302 12.08C7.5502 12.12 7.78019 12.15 8.01019 12.15C9.87019 12.15 11.4202 10.87 11.8702 9.15002H20.0102V7.15002H11.8702L11.8502 7.16003ZM9.11023 9.82004C8.79023 10.04 8.41023 10.16 7.99023 10.16C7.81023 10.16 7.64022 10.13 7.48022 10.09C6.79022 9.91003 6.25019 9.37002 6.07019 8.68002C6.03019 8.52002 6.00018 8.35004 6.00018 8.17004C6.00018 7.89004 6.06022 7.63005 6.16022 7.39005C6.31022 7.03005 6.57019 6.73004 6.88019 6.51004C7.20019 6.29004 7.58018 6.17004 8.00018 6.17004C8.18018 6.17004 8.35019 6.20002 8.51019 6.24002C9.20019 6.42002 9.74023 6.96002 9.92023 7.65002C9.96023 7.81002 9.99023 7.98003 9.99023 8.16003C9.99023 8.44003 9.9302 8.70003 9.8302 8.94003C9.6802 9.30003 9.42023 9.60004 9.11023 9.82004Z" fill="currentColor"/><path d="M19.8702 15.21C19.8402 15.1 19.8102 15 19.7702 14.9C19.3702 13.71 18.4402 12.79 17.2602 12.39C17.1602 12.35 17.0602 12.32 16.9502 12.29C16.8602 12.27 16.7702 12.25 16.6702 12.23C16.4502 12.19 16.2202 12.16 15.9902 12.16C14.1302 12.16 12.5802 13.44 12.1302 15.16H3.99023V17.16H12.1302C12.1502 17.25 12.1802 17.34 12.2102 17.43C12.6102 18.61 13.5302 19.54 14.7202 19.94C14.8202 19.98 14.9202 20.01 15.0302 20.04C15.1202 20.06 15.2102 20.08 15.3002 20.1C15.5202 20.14 15.7502 20.17 15.9802 20.17C18.1902 20.17 19.9802 18.38 19.9802 16.17C19.9802 15.94 19.9502 15.71 19.9102 15.49C19.8902 15.4 19.8702 15.31 19.8502 15.22L19.8702 15.21ZM17.8402 16.95C17.6902 17.31 17.4302 17.61 17.1202 17.83C16.8002 18.05 16.4202 18.17 16.0002 18.17C15.8202 18.17 15.6502 18.14 15.4902 18.1C14.8002 17.92 14.2602 17.38 14.0802 16.69C14.0402 16.53 14.0102 16.36 14.0102 16.18C14.0102 15.9 14.0702 15.64 14.1702 15.4C14.3202 15.04 14.5802 14.74 14.8902 14.52C15.2002 14.3 15.5902 14.18 16.0102 14.18C16.1902 14.18 16.3602 14.21 16.5202 14.25C17.2102 14.43 17.7502 14.97 17.9302 15.66C17.9702 15.82 18.0002 15.99 18.0002 16.17C18.0002 16.45 17.9402 16.71 17.8402 16.95Z" fill="currentColor"/></symbol>
<symbol id="icon-trash_can" viewBox="0 0 24 24"><path d="M3.1582 4.17505H6.85748V1.68311H16.7222V4.17505H20.4215V6.667H3.1582V4.17505Z" fill="currentColor"/><path fill-rule="evenodd" clip-rule="evenodd" d="M17.9553 9.15894H5.62439V21.6187H17.9553V9.15894ZM13.0229 12.8969H10.5568V17.8807H13.0229V12.8969Z" fill="currentColor"/></symbol>
<symbol id="icon-triangle_i" viewBox="0 0 24 24"><path fill-rule="evenodd" clip-rule="evenodd" d="M22.2 20.925H1.19995V17.1L10.3875 1.80005H13.0125L22.2 17.1V20.925ZM10.3875 6.90005H13.0125V13.275H10.3875V6.90005ZM10.3875 15.825H13.0125V18.375H10.3875V15.825Z" fill="currentColor"/></symbol>
<symbol id="icon-triangle_oultine" viewBox="0 0 24 24"><path fill-rule="evenodd" clip-rule="evenodd" d="M3.86248 17.4799V19.5874H20.1375V17.4799L11.9999 4.09999L3.86248 17.4799ZM1.5 16.6999V21.9499H22.5V16.6999L13.5751 2H10.4251L1.5 16.6999Z" fill="currentColor"/><path d="M10.75 7.99986H13.25V14.2499H10.75V7.99986Z" fill="currentColor"/><path d="M10.75 16H13.25V18.5H10.75V16Z" fill="currentColor"/></symbol>
<symbol id="icon-upload" viewBox="0 0 24 24"><path d="M5.6251 9.45005L9.4501 9.45005L9.4501 17.1L14.5501 17.1L14.5501 9.45005L18.3751 9.45005V8.17505L12.0001 1.80005L5.6251 8.17505L5.6251 9.45005Z" fill="currentColor"/><path d="M4.3501 22.2001L19.6501 22.2V19.65L4.3501 19.65V22.2001Z" fill="currentColor"/></symbol>
<symbol id="icon-user" viewBox="0 0 24 24"><path d="M11.6999 10.725C13.7503 10.725 15.4124 9.01244 15.4124 6.89995C15.4124 4.78746 13.7503 3.07495 11.6999 3.07495C9.64955 3.07495 7.9874 4.78746 7.9874 6.89995C7.9874 9.01244 9.64955 10.725 11.6999 10.725Z" fill="currentColor"/><path d="M19.1249 17.1C19.1249 14.9875 17.4628 13.275 15.4124 13.275H7.9874C5.93705 13.275 4.2749 14.9875 4.2749 17.1V20.925H19.1249V17.1Z" fill="currentColor"/></symbol>
<symbol id="icon-user_circle" viewBox="0 0 24 24"><path d="M11.6999 10.725C13.7503 10.725 15.4124 9.01244 15.4124 6.89995C15.4124 4.78746 13.7503 3.07495 11.6999 3.07495C9.64955 3.07495 7.9874 4.78746 7.9874 6.89995C7.9874 9.01244 9.64955 10.725 11.6999 10.725Z" fill="currentColor"/><path d="M19.1249 17.1C19.1249 14.9875 17.4628 13.275 15.4124 13.275H7.9874C5.93705 13.275 4.2749 14.9875 4.2749 17.1V20.925H19.1249V17.1Z" fill="currentColor"/></symbol>
<symbol id="icon-users" viewBox="0 0 24 24"><path d="M12 6.26245C12 8.02286 10.489 9.44995 8.62501 9.44995C6.76105 9.44995 5.25001 8.02286 5.25001 6.26245C5.25001 4.50204 6.76105 3.07495 8.62501 3.07495C10.489 3.07495 12 4.50204 12 6.26245Z" fill="currentColor"/><path d="M5.25001 12C3.01326 12 1.20001 13.7125 1.20001 15.825V19.65H12V12H5.25001Z" fill="currentColor"/><path d="M18.75 12H14.7V19.65H22.8V15.825C22.8 13.7125 20.9868 12 18.75 12Z" fill="currentColor"/><path d="M17.4 9.44995C18.8912 9.44995 20.1 8.30828 20.1 6.89995C20.1 5.49163 18.8912 4.34995 17.4 4.34995C15.9088 4.34995 14.7 5.49163 14.7 6.89995C14.7 8.30828 15.9088 9.44995 17.4 9.44995Z" fill="currentColor"/></symbol>
<symbol id="icon-wallet" viewBox="0 0 24 24"><path d="M12.8178 7.57601H19.3319V5H3V19H19.3319V16.4229H12.8178V7.57601Z" fill="currentColor"/><path d="M19.3317 9.8988H15.4797V14.1H19.3317H21.6649V9.8988H19.3317Z" fill="currentColor"/></symbol>
<symbol id="icon-wifi" viewBox="0 0 24 24"><path d="M3.29381 9.23124L1.80005 10.725L3.60317 12.5281L5.09693 11.0344C6.92775 9.20354 9.41087 8.175 12 8.175C14.5892 8.175 17.0723 9.20355 18.9032 11.0344L20.3969 12.5281L22.2 10.725L20.7063 9.23125C18.3973 6.92221 15.2655 5.625 12 5.625C8.73457 5.625 5.60284 6.9222 3.29381 9.23124Z" fill="currentColor"/><path d="M18.5938 14.3312L17.1001 12.8375C15.7475 11.4849 13.9129 10.725 12.0001 10.725C10.0872 10.725 8.25266 11.4849 6.90006 12.8375L5.4063 14.3312L7.20942 16.1344L8.70318 14.6406C9.57756 13.7662 10.7635 13.275 12.0001 13.275C13.2366 13.275 14.4225 13.7662 15.2969 14.6406L16.7907 16.1344L18.5938 14.3312Z" fill="currentColor"/><path d="M14.9876 17.9375L13.4938 16.4437C13.0976 16.0476 12.5603 15.825 12.0001 15.825C11.4398 15.825 10.9025 16.0476 10.5063 16.4437L9.01255 17.9375L12.0001 20.925L14.9876 17.9375Z" fill="currentColor"/></symbol>
<symbol id="icon-wifi_off" viewBox="0 0 24 24"><path d="M22.2 22.2H18.2625L14.7323 17.8551L11.7 20.8874L8.62457 17.8121L10.1623 16.2744C10.5701 15.8666 11.1232 15.6374 11.6999 15.6374H12.9304L10.8581 13.0868C9.89783 13.2579 9.00523 13.7191 8.30612 14.4182L6.76842 15.9559L4.91227 14.0998L6.44996 12.5621C7.19801 11.814 8.08924 11.2421 9.05925 10.8729L7.34031 8.75732C6.3311 9.2432 5.40088 9.89883 4.5938 10.7059L3.05611 12.2436L1.19995 10.3874L2.73764 8.84976C3.60639 7.98101 4.58827 7.2514 5.64865 6.67527L1.19995 1.19995H5.13745L22.2 22.2Z" fill="currentColor"/><path d="M18.8061 10.7059C17.6746 9.57437 15.9939 8.48572 14.5 8L12.2851 5.15095C15.4337 5.29636 18.4236 6.6111 20.6623 8.84976L22.2 10.3874L20.3438 12.2436L18.8061 10.7059Z" fill="currentColor"/></symbol>
<symbol id="icon-x" viewBox="0 0 24 24"><path d="M16.5962 5.28247L18.7175 7.40379L7.40381 18.7175L5.28249 16.5962L16.5962 5.28247Z" fill="currentColor"/><path d="M18.7175 16.5962L16.5962 18.7175L5.28249 7.40379L7.40381 5.28247L18.7175 16.5962Z" fill="currentColor"/></symbol>
<symbol id="icon-x_circle" viewBox="0 0 24 24"><path fill-rule="evenodd" clip-rule="evenodd" d="M12 22C17.5228 22 22 17.5228 22 12C22 6.47715 17.5228 2 12 2C6.47715 2 2 6.47715 2 12C2 17.5228 6.47715 22 12 22ZM7.36612 9.13388L10.2322 12L7.36612 14.8661L9.13388 16.6339L12 13.7678L14.8661 16.6339L16.6339 14.8661L13.7678 12L16.6339 9.13388L14.8661 7.36612L12 10.2322L9.13388 7.36612L7.36612 9.13388Z" fill="currentColor"/></symbol>
<symbol id="icon-x_circle_outline" viewBox="0 0 24 24"><path fill-rule="evenodd" clip-rule="evenodd" d="M8 9.52595L10.4741 12L8 14.4741L9.52595 16L12 13.5259L14.4741 16L16 14.4741L13.5259 12L16 9.52595L14.4741 8L12 10.4741L9.52595 8L8 9.52595Z" fill="currentColor"/><path fill-rule="evenodd" clip-rule="evenodd" d="M12 19.75C16.2802 19.75 19.75 16.2802 19.75 12C19.75 7.71979 16.2802 4.25 12 4.25C7.71979 4.25 4.25 7.71979 4.25 12C4.25 16.2802 7.71979 19.75 12 19.75ZM12 22C17.5228 22 22 17.5228 22 12C22 6.47715 17.5228 2 12 2C6.47715 2 2 6.47715 2 12C2 17.5228 6.47715 22 12 22Z" fill="currentColor"/></symbol>
<symbol id="icon-x_large" viewBox="0 0 24 24"><path d="M19.4246 15.8891L15.8891 19.4246L4.57539 8.11091L8.11093 4.57538L19.4246 15.8891Z" fill="currentColor"/><path d="M8.11093 19.4246L4.57539 15.8891L15.8891 4.57538L19.4246 8.11091L8.11093 19.4246Z" fill="currentColor"/></symbol>
<symbol id="icon-zoom_in" viewBox="0 0 24 24"><path fill-rule="evenodd" clip-rule="evenodd" d="M16.3094 17.8732C14.7318 18.9891 12.7726 19.65 10.65 19.65C5.43086 19.65 1.19995 15.6542 1.19995 10.725C1.19995 5.79591 5.43086 1.80005 10.65 1.80005C15.869 1.80005 20.1 5.79591 20.1 10.725C20.1 12.7298 19.4001 14.5801 18.2186 16.0701L22.4045 20.0235L20.4954 21.8266L16.3094 17.8732ZM6.59995 9.45005H9.29995L9.29995 6.90005L12 6.90005L12 9.45005L14.7 9.45005V12L12 12V14.55H9.29995V12H6.59995L6.59995 9.45005Z" fill="currentColor"/></symbol>
<symbol id="icon-zoom_out" viewBox="0 0 24 24"><path fill-rule="evenodd" clip-rule="evenodd" d="M15.9035 17.843C14.4779 18.9302 12.7074 19.5741 10.7892 19.5741C6.07287 19.5741 2.24951 15.681 2.24951 10.8786C2.24951 6.07613 6.07287 2.18298 10.7892 2.18298C15.5056 2.18298 19.3289 6.07613 19.3289 10.8786C19.3289 12.8318 18.6965 14.6345 17.6288 16.0862L21.4115 19.938L19.6862 21.6947L15.9035 17.843ZM14.4491 9.63634V12.1208H7.12934V9.63634L14.4491 9.63634Z" fill="currentColor"/></symbol>
</svg>
