<svg width="112" height="112" viewBox="0 0 112 112" fill="none" xmlns="http://www.w3.org/2000/svg">
<path fill-rule="evenodd" clip-rule="evenodd" d="M25.9999 12C25.9999 10.8954 26.8953 10 27.9999 10H45.9999C47.1044 10 47.9999 10.8954 47.9999 12V30C47.9999 31.1046 47.1044 32 45.9999 32H27.9999C26.8953 32 25.9999 31.1046 25.9999 30V12ZM80.9999 29C80.9999 27.8954 81.8953 27 82.9999 27H101C102.104 27 103 27.8954 103 29V47C103 48.1046 102.104 49 101 49H82.9999C81.8953 49 80.9999 48.1046 80.9999 47V29ZM12.9999 65C11.8953 65 10.9999 65.8954 10.9999 67V85C10.9999 86.1046 11.8953 87 12.9999 87H30.9999C32.1044 87 32.9999 86.1046 32.9999 85V67C32.9999 65.8954 32.1044 65 30.9999 65H12.9999ZM10.9999 43C10.9999 41.8954 11.8953 41 12.9999 41H20.9999C22.1044 41 22.9999 41.8954 22.9999 43V51C22.9999 52.1046 22.1044 53 20.9999 53H12.9999C11.8953 53 10.9999 52.1046 10.9999 51V43ZM63.9999 10C62.8953 10 61.9999 10.8954 61.9999 12V20C61.9999 21.1046 62.8953 22 63.9999 22H71.9999C73.1044 22 73.9999 21.1046 73.9999 20V12C73.9999 10.8954 73.1044 10 71.9999 10H63.9999ZM40.9999 94C40.9999 92.8954 41.8953 92 42.9999 92H50.9999C52.1044 92 52.9999 92.8954 52.9999 94V102C52.9999 103.105 52.1044 104 50.9999 104H42.9999C41.8953 104 40.9999 103.105 40.9999 102V94ZM92.9999 61C91.8953 61 90.9999 61.8954 90.9999 63V71C90.9999 72.1046 91.8953 73 92.9999 73H101C102.104 73 103 72.1046 103 71V63C103 61.8954 102.104 61 101 61H92.9999ZM66.9999 84C66.9999 82.8954 67.8953 82 68.9999 82H86.9999C88.1044 82 88.9999 82.8954 88.9999 84V102C88.9999 103.105 88.1044 104 86.9999 104H68.9999C67.8953 104 66.9999 103.105 66.9999 102V84ZM60.4549 75C62.8595 66.8004 67.501 57.7338 72.9999 50.5637H56.9878V37H51.5448C49.1402 45.1996 44.4988 54.2662 38.9999 61.4183H55.0119V75H60.4549Z" fill="black"/>
</svg>
